<?xml version="1.0" encoding="UTF-8" standalone="no"?>
<svg
   width="25.4mm"
   height="128.5mm"
   viewBox="0 0 95.99998579999999 485.6692195"
   version="1.1"
   id="svg12"
   sodipodi:docname="fmtoolpanel - Copy.svg"
   inkscape:version="1.4.3 (0d15f75, 2025-12-25)"
   xmlns:inkscape="http://www.inkscape.org/namespaces/inkscape"
   xmlns:sodipodi="http://sodipodi.sourceforge.net/DTD/sodipodi-0.dtd"
   xmlns="http://www.w3.org/2000/svg"
   xmlns:svg="http://www.w3.org/2000/svg">
  <defs
     id="defs12" />
  <sodipodi:namedview
     id="namedview12"
     pagecolor="#ffffff"
     bordercolor="#000000"
     borderopacity="0.25"
     inkscape:showpageshadow="2"
     inkscape:pageopacity="0.0"
     inkscape:pagecheckerboard="0"
     inkscape:deskcolor="#d1d1d1"
     inkscape:document-units="mm"
     inkscape:zoom="1.591618"
     inkscape:cx="39.582361"
     inkscape:cy="212.67666"
     inkscape:window-width="1920"
     inkscape:window-height="991"
     inkscape:window-x="-9"
     inkscape:window-y="-9"
     inkscape:window-maximized="1"
     inkscape:current-layer="svg12" />
  <rect
     x="0"
     y="0"
     width="95.99998579999999"
     height="485.6692195"
     fill="#EAEAEA"
     id="rect1" />
  <rect
     x="1.1338580999999999"
     y="1.1338580999999999"
     width="93.7322696"
     height="483.4015033"
     fill="none"
     stroke="#B3B3B3"
     stroke-width="2.2677161999999997"
     id="rect2" />
  <path
     id="text5"
     style="font-weight:800;font-size:15.12px;font-family:Nunito, Arial;dominant-baseline:central;text-anchor:middle;fill:#222222"
     d="M 55.152336 28.445309 C 54.366096 28.445309 53.645427 28.57776 52.990227 28.83984 C 52.345107 29.10192 51.789845 29.47514 51.326165 29.95898 C 50.862485 30.43274 50.503946 31.006276 50.251946 31.681636 C 50.010026 32.346916 49.890618 33.098902 49.890618 33.935542 C 49.890618 35.034262 50.107569 35.995701 50.541009 36.822261 C 50.984529 37.648821 51.598518 38.294127 52.384758 38.757807 C 53.181078 39.211407 54.104016 39.439448 55.152336 39.439448 C 55.948656 39.439448 56.669325 39.306997 57.314445 39.044917 C 57.959565 38.782837 58.512874 38.409616 58.976554 37.925776 C 59.440234 37.441936 59.798773 36.862855 60.050773 36.187495 C 60.302773 35.512135 60.427726 34.756557 60.427726 33.919917 C 60.427726 32.821197 60.207184 31.863351 59.763664 31.046871 C 59.330224 30.220311 58.719826 29.580549 57.933586 29.126949 C 57.147346 28.673349 56.220816 28.445309 55.152336 28.445309 z M 67.187491 28.445309 C 66.401251 28.445309 65.680582 28.57776 65.025382 28.83984 C 64.380262 29.10192 63.824999 29.47514 63.361319 29.95898 C 62.897639 30.43274 62.541054 31.006276 62.289054 31.681636 C 62.047134 32.346916 61.925773 33.098902 61.925773 33.935542 C 61.925773 35.034262 62.142723 35.995701 62.576163 36.822261 C 63.019683 37.648821 63.633673 38.294127 64.419913 38.757807 C 65.216233 39.211407 66.139171 39.439448 67.187491 39.439448 C 67.983811 39.439448 68.70448 39.306997 69.3496 39.044917 C 69.99472 38.782837 70.548029 38.409616 71.011709 37.925776 C 71.475389 37.441936 71.833928 36.862855 72.085928 36.187495 C 72.337928 35.512135 72.464834 34.756557 72.464834 33.919917 C 72.464834 32.821197 72.242338 31.863351 71.798818 31.046871 C 71.365378 30.220311 70.75498 29.580549 69.96874 29.126949 C 69.1825 28.673349 68.255971 28.445309 67.187491 28.445309 z M 24.957028 28.476559 C 24.614308 28.476559 24.342222 28.572148 24.140622 28.763668 C 23.949102 28.955188 23.853512 29.221729 23.853512 29.564449 L 23.853512 38.320307 C 23.853512 38.663027 23.943557 38.929568 24.124997 39.121088 C 24.306437 39.312608 24.569386 39.408198 24.912106 39.408198 C 25.264906 39.408198 25.525902 39.312608 25.697262 39.121088 C 25.878702 38.929568 25.9707 38.663027 25.9707 38.320307 L 25.9707 32.826167 L 28.449215 37.230464 C 28.560095 37.411904 28.687001 37.553492 28.828121 37.654292 C 28.969241 37.755092 29.151283 37.804682 29.373043 37.804682 C 29.594803 37.804682 29.7713 37.760637 29.90234 37.669917 C 30.04346 37.569117 30.173958 37.421984 30.294918 37.230464 L 32.773433 32.792964 L 32.773433 38.320307 C 32.773433 38.663027 32.86543 38.929568 33.04687 39.121088 C 33.23839 39.312608 33.504932 39.408198 33.847652 39.408198 C 34.190372 39.408198 34.453321 39.312608 34.634761 39.121088 C 34.816201 38.929568 34.906245 38.663027 34.906245 38.320307 L 34.906245 29.564449 C 34.906245 29.221729 34.810656 28.955188 34.619136 28.763668 C 34.437696 28.572148 34.174747 28.476559 33.832027 28.476559 C 33.539707 28.476559 33.302529 28.537239 33.121089 28.658199 C 32.949729 28.769079 32.789867 28.965803 32.638667 29.248043 L 29.40234 35.158198 L 26.166012 29.248043 C 26.014812 28.965803 25.849405 28.769079 25.667965 28.658199 C 25.496605 28.537239 25.259428 28.476559 24.957028 28.476559 z M 75.457021 28.582027 C 75.073981 28.582027 74.781668 28.683162 74.580068 28.884762 C 74.378468 29.086362 74.279287 29.38422 74.279287 29.77734 L 74.279287 38.07812 C 74.279287 38.45108 74.378468 38.743393 74.580068 38.955073 C 74.791748 39.166753 75.089606 39.271479 75.472646 39.271479 L 80.673817 39.271479 C 80.996377 39.271479 81.244644 39.18698 81.416004 39.01562 C 81.597444 38.84426 81.687489 38.595992 81.687489 38.273432 C 81.687489 37.960952 81.597444 37.720183 81.416004 37.548823 C 81.244644 37.377463 80.996377 37.291011 80.673817 37.291011 L 76.623036 37.291011 L 76.623036 29.77734 C 76.623036 29.38422 76.521902 29.086362 76.320302 28.884762 C 76.118702 28.683162 75.829981 28.582027 75.457021 28.582027 z M 16.429685 28.613277 C 16.036565 28.613277 15.733162 28.718004 15.521482 28.929684 C 15.309802 29.141364 15.205076 29.444767 15.205076 29.837887 L 15.205076 38.167964 C 15.205076 38.571164 15.30621 38.878158 15.50781 39.089838 C 15.71949 39.301518 16.015395 39.408198 16.398435 39.408198 C 17.164515 39.408198 17.548826 38.994524 17.548826 38.167964 L 17.548826 34.873042 L 21.267575 34.873042 C 21.569975 34.873042 21.801608 34.792135 21.962888 34.630855 C 22.124168 34.469575 22.205075 34.241534 22.205075 33.949214 C 22.205075 33.656894 22.124168 33.436352 21.962888 33.285152 C 21.801608 33.123872 21.569975 33.042964 21.267575 33.042964 L 17.548826 33.042964 L 17.548826 30.441402 L 21.599606 30.441402 C 21.902006 30.441402 22.130047 30.36604 22.281247 30.21484 C 22.442527 30.05356 22.523434 29.821927 22.523434 29.519527 C 22.523434 29.227207 22.442527 29.006665 22.281247 28.855465 C 22.130047 28.694185 21.902006 28.613277 21.599606 28.613277 L 16.429685 28.613277 z M 41.150385 28.613277 C 40.837905 28.613277 40.597136 28.697777 40.425776 28.869137 C 40.254416 29.030417 40.167963 29.267594 40.167963 29.580074 C 40.167963 29.882474 40.254416 30.119651 40.425776 30.291011 C 40.597136 30.462371 40.837905 30.548824 41.150385 30.548824 L 43.826166 30.548824 L 43.826166 38.199214 C 43.826166 38.582254 43.9273 38.878158 44.1289 39.089838 C 44.3305 39.301518 44.622813 39.408198 45.005853 39.408198 C 45.388893 39.408198 45.675661 39.301518 45.867181 39.089838 C 46.068781 38.878158 46.169916 38.582254 46.169916 38.199214 L 46.169916 30.548824 L 48.84765 30.548824 C 49.16013 30.548824 49.400899 30.462371 49.572259 30.291011 C 49.743619 30.119651 49.830071 29.882474 49.830071 29.580074 C 49.830071 29.267594 49.743619 29.030417 49.572259 28.869137 C 49.400899 28.697777 49.16013 28.613277 48.84765 28.613277 L 41.150385 28.613277 z M 55.152336 30.441402 C 56.049456 30.441402 56.744353 30.75035 57.238273 31.36523 C 57.732193 31.97003 57.978508 32.826742 57.978508 33.935542 C 57.978508 34.661302 57.862691 35.289974 57.630851 35.824214 C 57.409091 36.348374 57.087415 36.752911 56.664055 37.035151 C 56.250775 37.307311 55.747056 37.443354 55.152336 37.443354 C 54.265296 37.443354 53.573991 37.134406 53.080071 36.519526 C 52.586151 35.894566 52.339837 35.034262 52.339837 33.935542 C 52.339837 33.199702 52.450108 32.569077 52.671868 32.044917 C 52.893628 31.520757 53.217258 31.121765 53.640618 30.849605 C 54.063978 30.577445 54.567696 30.441402 55.152336 30.441402 z M 67.187491 30.441402 C 68.084611 30.441402 68.779508 30.75035 69.273428 31.36523 C 69.767348 31.97003 70.015615 32.826742 70.015615 33.935542 C 70.015615 34.661302 69.897846 35.289974 69.666006 35.824214 C 69.444246 36.348374 69.122569 36.752911 68.699209 37.035151 C 68.285929 37.307311 67.782211 37.443354 67.187491 37.443354 C 66.300451 37.443354 65.609145 37.134406 65.115225 36.519526 C 64.621305 35.894566 64.374991 35.034262 64.374991 33.935542 C 64.374991 33.199702 64.485262 32.569077 64.707022 32.044917 C 64.928782 31.520757 65.252412 31.121765 65.675772 30.849605 C 66.099132 30.577445 66.602851 30.441402 67.187491 30.441402 z " />
  <path
     id="text6"
     style="font-style:italic;font-weight:800;font-size:15.12px;font-family:Nunito, Arial;dominant-baseline:central;text-anchor:middle;fill:#222222"
     d="M 75.117177 442.62299 C 74.683737 442.62299 74.341834 442.72412 74.089834 442.92572 C 73.837834 443.11724 73.681564 443.40955 73.621084 443.80267 C 73.580764 444.15547 73.656126 444.42756 73.847646 444.61908 C 74.049246 444.8106 74.350696 444.90619 74.753896 444.90619 C 75.187336 444.90619 75.531193 444.8106 75.783193 444.61908 C 76.035193 444.41748 76.185918 444.12517 76.236318 443.74213 C 76.296798 443.37925 76.22698 443.10162 76.02538 442.9101 C 75.82378 442.71858 75.520377 442.62299 75.117177 442.62299 z M 49.171868 442.89447 C 48.859388 442.89447 48.601984 442.9607 48.400384 443.09174 C 48.198784 443.2127 48.01315 443.41496 47.84179 443.6972 L 42.427729 452.45111 C 42.276529 452.70311 42.221393 452.93474 42.261713 453.14642 C 42.291953 453.34802 42.398632 453.51538 42.580072 453.64642 C 42.771592 453.76738 43.003225 453.82806 43.275385 453.82806 C 43.547545 453.82806 43.773632 453.77097 43.955072 453.66009 C 44.146592 453.53913 44.308407 453.36818 44.439447 453.14642 L 45.470697 451.37689 L 50.478509 451.37689 L 50.849602 452.79877 C 50.940322 453.15157 51.072774 453.41452 51.244134 453.58588 C 51.425574 453.74716 51.68657 453.82806 52.02929 453.82806 C 52.27121 453.82806 52.47707 453.77097 52.64843 453.66009 C 52.81979 453.54921 52.93756 453.39294 52.99804 453.19134 C 53.05852 452.97966 53.041885 452.71867 52.951165 452.40619 L 50.396477 443.86322 C 50.305757 443.54066 50.155033 443.29794 49.943353 443.13666 C 49.741753 442.97538 49.484348 442.89447 49.171868 442.89447 z M 71.00585 442.89447 C 70.63289 442.89447 70.335032 442.98647 70.113272 443.16791 C 69.891512 443.34935 69.749924 443.62698 69.689444 443.99994 L 69.1621 447.40619 C 68.984294 447.02077 68.71694 446.72255 68.359366 446.5097 C 67.946086 446.24762 67.462594 446.11517 66.908194 446.11517 C 66.152194 446.11517 65.492205 446.3119 64.927725 446.70502 C 64.363245 447.09814 63.929344 447.63872 63.626944 448.32416 C 63.324544 448.99952 63.173819 449.76978 63.173819 450.63666 C 63.173819 451.29186 63.284091 451.8618 63.505851 452.34564 C 63.737691 452.8194 64.059367 453.19262 64.472647 453.46478 C 64.896007 453.72686 65.385044 453.85736 65.939444 453.85736 C 66.483764 453.85736 66.978346 453.72686 67.421866 453.46478 C 67.803139 453.23948 68.124623 452.94721 68.386709 452.58783 C 68.343025 452.94557 68.389217 453.23784 68.525381 453.46478 C 68.686661 453.7067 68.944065 453.82806 69.296865 453.82806 C 69.669825 453.82806 69.967683 453.73052 70.189443 453.539 C 70.411203 453.3374 70.547247 453.04509 70.597647 452.66205 L 71.943349 444.21088 C 72.003829 443.78752 71.952286 443.46584 71.791006 443.24408 C 71.629726 443.01224 71.36873 442.89447 71.00585 442.89447 z M 14.486326 443.03119 C 14.093206 443.03119 13.780666 443.13232 13.548826 443.33392 C 13.316986 443.52544 13.175398 443.81221 13.124998 444.19525 L 11.810545 452.43548 C 11.739985 452.86892 11.789576 453.21278 11.960936 453.46478 C 12.142376 453.7067 12.414462 453.82806 12.777342 453.82806 C 13.170462 453.82806 13.47941 453.73052 13.70117 453.539 C 13.93301 453.3374 14.07819 453.0415 14.13867 452.64838 L 14.60742 449.56244 L 15.863279 449.56244 C 16.205999 449.56244 16.47254 449.63421 16.66406 449.77533 C 16.86566 449.90637 17.02193 450.13246 17.13281 450.45502 L 18.025388 452.79877 C 18.156428 453.15157 18.31629 453.41452 18.50781 453.58588 C 18.69933 453.74716 18.956734 453.82806 19.279294 453.82806 C 19.611934 453.82806 19.869338 453.76738 20.050778 453.64642 C 20.232218 453.52546 20.338898 453.35256 20.369138 453.1308 C 20.409458 452.89896 20.369004 452.62687 20.248044 452.31439 L 19.671872 450.83392 C 19.480352 450.35008 19.228493 449.97132 18.916013 449.69916 C 18.785593 449.58136 18.64054 449.48849 18.478513 449.41986 C 18.787572 449.36022 19.079758 449.27659 19.355466 449.16986 C 19.980426 448.91786 20.469463 448.5355 20.822263 448.02142 C 21.175063 447.49726 21.35156 446.83173 21.35156 446.02533 C 21.35156 445.09797 21.033475 444.36621 20.398435 443.83197 C 19.773475 443.29773 18.867172 443.03119 17.677732 443.03119 L 14.486326 443.03119 z M 15.363279 444.86127 L 17.298826 444.86127 C 17.923786 444.86127 18.377914 444.97708 18.660154 445.20892 C 18.952474 445.43068 19.097654 445.76899 19.097654 446.22259 C 19.097654 446.76691 18.932247 447.17864 18.599607 447.46088 C 18.266967 447.73304 17.792612 447.86908 17.177732 447.86908 L 14.878904 447.86908 L 15.363279 444.86127 z M 48.900384 445.52533 L 48.929681 445.52533 L 49.986321 449.54877 L 46.544915 449.54877 L 48.900384 445.52533 z M 26.113278 446.11517 C 25.316958 446.11517 24.601834 446.30276 23.966794 446.67572 C 23.341834 447.04868 22.847252 447.55794 22.484372 448.20306 C 22.121492 448.84818 21.941403 449.59267 21.941403 450.43939 C 21.941403 451.11475 22.097673 451.71047 22.410153 452.22455 C 22.722633 452.73863 23.165671 453.14121 23.740231 453.43353 C 24.314791 453.71577 24.989461 453.85736 25.765621 453.85736 C 26.148661 453.85736 26.562336 453.80777 27.005856 453.70697 C 27.449376 453.61625 27.848368 453.47466 28.201168 453.28314 C 28.402768 453.17226 28.547948 453.03622 28.638668 452.87494 C 28.739468 452.70358 28.785467 452.53622 28.775387 452.37494 C 28.775387 452.20358 28.729388 452.05285 28.638668 451.92181 C 28.547948 451.7908 28.41745 451.70989 28.24609 451.67963 C 28.08481 451.63931 27.893631 451.67421 27.671871 451.78509 C 27.429951 451.90607 27.15232 451.99807 26.83984 452.05853 C 26.53744 452.119 26.254264 452.14838 25.992184 452.14838 C 25.296664 452.14838 24.778264 451.96274 24.435544 451.58978 C 24.182549 451.29845 24.056979 450.92523 24.060544 450.47064 L 28.68359 450.47064 C 28.85495 450.47064 28.990993 450.43931 29.091793 450.37884 C 29.192593 450.30828 29.258818 450.15756 29.289058 449.92572 C 29.339458 449.44188 29.319232 448.97307 29.228512 448.51947 C 29.147872 448.05579 28.982465 447.64766 28.730465 447.29486 C 28.478465 446.93198 28.134608 446.64521 27.701168 446.43353 C 27.267728 446.22185 26.738238 446.11517 26.113278 446.11517 z M 80.71288 446.11517 C 80.1484 446.11517 79.607819 446.21076 79.093739 446.40228 C 78.589739 446.5938 78.137564 446.87698 77.734364 447.24994 C 77.341244 447.61282 77.028704 448.06695 76.796864 448.61127 C 76.575104 449.14551 76.46288 449.75395 76.46288 450.43939 C 76.46288 451.12483 76.604468 451.72609 76.886708 452.24017 C 77.179028 452.75425 77.598247 453.15129 78.142567 453.43353 C 78.686887 453.71577 79.341331 453.85736 80.107411 453.85736 C 80.671891 453.85736 81.206926 453.76177 81.710926 453.57025 C 82.225006 453.37873 82.677181 453.09555 83.070301 452.72259 C 83.473501 452.34963 83.791586 451.89746 84.023426 451.36322 C 84.255266 450.82898 84.371082 450.21304 84.371082 449.51752 C 84.371082 448.83208 84.225902 448.23277 83.933582 447.71869 C 83.641262 447.20461 83.222043 446.81116 82.677723 446.539 C 82.133403 446.25676 81.47896 446.11517 80.71288 446.11517 z M 32.009761 446.14642 C 31.737601 446.14642 31.511514 446.22179 31.330074 446.37299 C 31.158714 446.51411 31.057579 446.69974 31.027339 446.93158 C 30.997099 447.15334 31.063325 447.39606 31.224605 447.65814 L 32.654292 449.83978 L 30.27148 452.30072 C 30.06988 452.52248 29.965154 452.75411 29.955074 452.99603 C 29.944994 453.22787 30.020356 453.4246 30.181636 453.58588 C 30.352996 453.74716 30.593766 453.82806 30.906246 453.82806 C 31.168326 453.82806 31.379731 453.77652 31.541011 453.67572 C 31.702291 453.57492 31.878788 453.42419 32.070308 453.22259 L 33.789058 451.41986 L 34.869136 453.11713 C 35.020336 453.34897 35.19488 453.52546 35.39648 453.64642 C 35.59808 453.76738 35.820575 453.82806 36.062495 453.82806 C 36.334655 453.82806 36.560742 453.75075 36.742182 453.59955 C 36.923622 453.44835 37.030302 453.25717 37.060542 453.02533 C 37.100862 452.78341 37.034636 452.53709 36.863276 452.28509 L 35.308589 449.94525 L 37.48437 447.64252 C 37.68597 447.42076 37.790696 447.19467 37.800776 446.96283 C 37.810856 446.73099 37.735494 446.53981 37.574214 446.38861 C 37.412934 446.22733 37.172164 446.14642 36.849604 446.14642 C 36.587524 446.14642 36.370574 446.19601 36.199214 446.29681 C 36.037934 446.38753 35.861437 446.53467 35.669917 446.73627 L 34.183589 448.40228 L 33.220699 446.85736 C 33.069499 446.61544 32.898547 446.43894 32.707027 446.32806 C 32.515507 446.2071 32.281921 446.14642 32.009761 446.14642 z M 56.308586 446.14642 C 55.955786 446.14642 55.67261 446.23092 55.46093 446.40228 C 55.24925 446.57364 55.118752 446.84214 55.068352 447.20502 L 54.509758 450.68158 C 54.388798 451.40734 54.409025 452.0086 54.570305 452.48236 C 54.731585 452.94604 54.998126 453.29349 55.371086 453.52533 C 55.744046 453.74709 56.192629 453.85736 56.716789 453.85736 C 57.301429 453.85736 57.81983 453.72132 58.27343 453.44916 C 58.646149 453.23039 58.9548 452.92711 59.197257 452.539 L 59.181633 452.64838 C 59.131233 453.05158 59.186368 453.34748 59.347648 453.539 C 59.519008 453.73052 59.780004 453.82806 60.132804 453.82806 C 60.848484 453.82806 61.262158 453.46952 61.373038 452.75384 L 62.20507 447.40033 C 62.26555 446.99713 62.210414 446.69013 62.039054 446.47845 C 61.867694 446.25669 61.584518 446.14642 61.191398 446.14642 C 60.838598 446.14642 60.56292 446.23092 60.36132 446.40228 C 60.15972 446.57364 60.027269 446.84214 59.966789 447.20502 L 59.484367 450.22845 C 59.393647 450.80301 59.191378 451.25714 58.878898 451.58978 C 58.576498 451.91234 58.183051 452.07416 57.699211 452.07416 C 57.316171 452.07416 57.055175 451.95639 56.914055 451.72455 C 56.772935 451.48263 56.736073 451.12604 56.806633 450.65228 L 57.322258 447.40033 C 57.372658 446.98705 57.311977 446.67451 57.140617 446.46283 C 56.969257 446.25115 56.691626 446.14642 56.308586 446.14642 z M 74.542959 446.14642 C 74.159919 446.14642 73.858469 446.24201 73.636709 446.43353 C 73.414949 446.61497 73.278906 446.8962 73.228506 447.27924 L 72.396474 452.49603 C 72.325914 452.90931 72.36996 453.23653 72.53124 453.47845 C 72.7026 453.71029 72.965549 453.82806 73.318349 453.82806 C 73.711469 453.82806 74.014872 453.73052 74.226552 453.539 C 74.438232 453.34748 74.574275 453.06626 74.634755 452.6933 L 75.464833 447.4765 C 75.525313 447.05314 75.475723 446.72592 75.314443 446.49408 C 75.153163 446.26224 74.895759 446.14642 74.542959 446.14642 z M 26.099606 447.62884 C 26.482646 447.62884 26.784096 447.71334 27.005856 447.8847 C 27.227616 448.04598 27.378341 448.26848 27.458981 448.55072 C 27.52354 448.76861 27.546769 449.01492 27.52734 449.29095 L 24.2207 449.29095 C 24.283595 449.03475 24.375225 448.79757 24.49609 448.58002 C 24.64729 448.29778 24.853151 448.07169 25.115231 447.90033 C 25.387391 447.71889 25.716566 447.62884 26.099606 447.62884 z M 67.376944 447.82416 C 67.810384 447.82416 68.146742 447.96575 68.388662 448.24799 C 68.640662 448.52015 68.767569 448.91914 68.767569 449.4433 C 68.767569 449.95738 68.692206 450.4151 68.541006 450.8183 C 68.389806 451.2215 68.172856 451.54317 67.890616 451.78509 C 67.608376 452.02701 67.264519 452.14838 66.861319 452.14838 C 66.427879 452.14838 66.085975 452.00679 65.833975 451.72455 C 65.592055 451.44231 65.470694 451.03972 65.470694 450.51556 C 65.470694 450.00148 65.546057 449.54376 65.697257 449.14056 C 65.848457 448.72728 66.065407 448.40365 66.347647 448.17181 C 66.629887 447.93997 66.973744 447.82416 67.376944 447.82416 z M 80.666005 447.82416 C 81.099445 447.82416 81.443301 447.96575 81.695301 448.24799 C 81.947301 448.52015 82.072254 448.91914 82.072254 449.4433 C 82.072254 449.95738 81.991347 450.42064 81.830067 450.83392 C 81.678867 451.23712 81.463869 451.5588 81.181629 451.80072 C 80.909469 452.03256 80.571158 452.14838 80.167958 452.14838 C 79.724438 452.14838 79.376989 452.00679 79.124989 451.72455 C 78.883069 451.44231 78.761708 451.03972 78.761708 450.51556 C 78.761708 450.00148 78.83707 449.54376 78.98827 449.14056 C 79.13947 448.72728 79.356421 448.40365 79.638661 448.17181 C 79.930981 447.93997 80.272885 447.82416 80.666005 447.82416 z " />
  <path
     id="text7"
     style="font-weight:800;font-size:10.08px;font-family:Nunito, Arial;dominant-baseline:central;text-anchor:middle;fill:#222222"
     d="M 29.195308 60.031242 C 28.966828 60.031242 28.78674 60.094968 28.65234 60.222648 C 28.52466 60.350328 28.45898 60.529324 28.45898 60.757804 L 28.45898 66.593741 C 28.45898 66.822221 28.519661 67.001217 28.640621 67.128897 C 28.761581 67.256577 28.937532 67.320303 29.166012 67.320303 C 29.401212 67.320303 29.575209 67.256577 29.689449 67.128897 C 29.810409 67.001217 29.87109 66.822221 29.87109 66.593741 L 29.87109 62.931632 L 31.523433 65.869132 C 31.597353 65.990092 31.681306 66.083182 31.775386 66.150382 C 31.869466 66.217582 31.990827 66.251944 32.138667 66.251944 C 32.286507 66.251944 32.404823 66.220627 32.492183 66.160147 C 32.586263 66.092947 32.673262 65.996812 32.753902 65.869132 L 34.406245 62.910148 L 34.406245 66.593741 C 34.406245 66.822221 34.466926 67.001217 34.587886 67.128897 C 34.715566 67.256577 34.894562 67.320303 35.123042 67.320303 C 35.351522 67.320303 35.525519 67.256577 35.646479 67.128897 C 35.767439 67.001217 35.82812 66.822221 35.82812 66.593741 L 35.82812 60.757804 C 35.82812 60.529324 35.764394 60.350328 35.636714 60.222648 C 35.515754 60.094968 35.341756 60.031242 35.113276 60.031242 C 34.918396 60.031242 34.759627 60.071695 34.638667 60.152335 C 34.524427 60.226255 34.417202 60.358707 34.316402 60.546867 L 32.160152 64.488272 L 30.001949 60.546867 C 29.901149 60.358707 29.790878 60.226255 29.669918 60.152335 C 29.555678 60.071695 29.396908 60.031242 29.195308 60.031242 z M 67.660147 60.031242 C 67.404787 60.031242 67.210563 60.103012 67.076163 60.244132 C 66.941763 60.385252 66.874991 60.582522 66.874991 60.837882 L 66.874991 66.513663 C 66.874991 66.769023 66.941763 66.966293 67.076163 67.107413 C 67.210563 67.248533 67.404787 67.320303 67.660147 67.320303 C 67.915507 67.320303 68.108639 67.248533 68.236319 67.107413 C 68.370719 66.966293 68.437491 66.769023 68.437491 66.513663 L 68.437491 64.275382 L 71.744131 64.275382 L 71.744131 66.513663 C 71.744131 66.769023 71.810903 66.966293 71.945303 67.107413 C 72.079703 67.248533 72.270881 67.320303 72.519521 67.320303 C 72.774881 67.320303 72.969106 67.248533 73.103506 67.107413 C 73.237906 66.966293 73.306631 66.769023 73.306631 66.513663 L 73.306631 60.837882 C 73.306631 60.582522 73.237906 60.385252 73.103506 60.244132 C 72.969106 60.103012 72.774881 60.031242 72.519521 60.031242 C 72.270881 60.031242 72.079703 60.103012 71.945303 60.244132 C 71.810903 60.385252 71.744131 60.582522 71.744131 60.837882 L 71.744131 62.974601 L 68.437491 62.974601 L 68.437491 60.837882 C 68.437491 60.582522 68.370719 60.385252 68.236319 60.244132 C 68.101919 60.103012 67.908787 60.031242 67.660147 60.031242 z M 23.509762 60.123039 C 23.247682 60.123039 23.047367 60.192856 22.906247 60.333976 C 22.765127 60.475096 22.693356 60.677365 22.693356 60.939445 L 22.693356 66.494131 C 22.693356 66.762931 22.762081 66.966293 22.896481 67.107413 C 23.037601 67.248533 23.234871 67.320303 23.490231 67.320303 C 24.000951 67.320303 24.255856 67.045171 24.255856 66.494131 L 24.255856 64.296866 L 26.736324 64.296866 C 26.937924 64.296866 27.091695 64.242277 27.199215 64.134757 C 27.306735 64.027237 27.361324 63.876512 27.361324 63.681632 C 27.361324 63.486752 27.306735 63.339073 27.199215 63.238273 C 27.091695 63.130753 26.937924 63.076163 26.736324 63.076163 L 24.255856 63.076163 L 24.255856 61.341788 L 26.957028 61.341788 C 27.158628 61.341788 27.311306 61.292198 27.412106 61.191398 C 27.519626 61.083878 27.572262 60.930107 27.572262 60.728507 C 27.572262 60.533627 27.519626 60.383995 27.412106 60.283195 C 27.311306 60.175675 27.158628 60.123039 26.957028 60.123039 L 23.509762 60.123039 z M 40.898432 60.123039 C 40.636352 60.123039 40.434083 60.192856 40.292963 60.333976 C 40.151843 60.475096 40.082026 60.677365 40.082026 60.939445 L 40.082026 66.4121 C 40.082026 66.67418 40.151843 66.876449 40.292963 67.017569 C 40.434083 67.158689 40.636352 67.228506 40.898432 67.228506 L 42.863275 67.228506 C 43.474795 67.228506 44.015922 67.152598 44.486322 66.998038 C 44.956722 66.836758 45.353215 66.605125 45.675775 66.302725 C 45.998335 66.000325 46.244103 65.63015 46.412103 65.19335 C 46.586823 64.74983 46.673822 64.243066 46.673822 63.671866 C 46.673822 62.536186 46.341055 61.662293 45.675775 61.050773 C 45.017215 60.432533 44.079595 60.123039 42.863275 60.123039 L 40.898432 60.123039 z M 48.701165 60.123039 C 48.439085 60.123039 48.236817 60.192856 48.095697 60.333976 C 47.954577 60.475096 47.884759 60.677365 47.884759 60.939445 L 47.884759 66.4121 C 47.884759 66.67418 47.954577 66.876449 48.095697 67.017569 C 48.236817 67.158689 48.439085 67.228506 48.701165 67.228506 L 52.218743 67.228506 C 52.420343 67.228506 52.571068 67.178916 52.671868 67.078116 C 52.779388 66.970596 52.833977 66.816825 52.833977 66.615225 C 52.833977 66.420345 52.779388 66.270713 52.671868 66.169913 C 52.571068 66.062393 52.420343 66.009757 52.218743 66.009757 L 49.374993 66.009757 L 49.374993 64.236319 L 51.986321 64.236319 C 52.194641 64.236319 52.350365 64.184776 52.451165 64.083976 C 52.558685 63.976456 52.611321 63.822685 52.611321 63.621085 C 52.611321 63.419485 52.558685 63.266807 52.451165 63.166007 C 52.350365 63.058487 52.194641 63.005851 51.986321 63.005851 L 49.374993 63.005851 L 49.374993 61.341788 L 52.218743 61.341788 C 52.420343 61.341788 52.571068 61.292198 52.671868 61.191398 C 52.779388 61.083878 52.833977 60.930107 52.833977 60.728507 C 52.833977 60.533627 52.779388 60.383995 52.671868 60.283195 C 52.571068 60.175675 52.420343 60.123039 52.218743 60.123039 L 48.701165 60.123039 z M 54.779289 60.123039 C 54.523929 60.123039 54.324706 60.18981 54.183586 60.32421 C 54.049186 60.45861 53.982414 60.657834 53.982414 60.919914 L 53.982414 66.513663 C 53.982414 66.769023 54.049186 66.966293 54.183586 67.107413 C 54.317986 67.248533 54.514164 67.320303 54.769524 67.320303 C 55.024884 67.320303 55.216062 67.248533 55.343742 67.107413 C 55.478142 66.966293 55.544914 66.769023 55.544914 66.513663 L 55.544914 64.66796 L 57.228508 64.66796 C 58.021468 64.66796 58.632412 64.467644 59.062492 64.064444 C 59.492572 63.661244 59.707023 63.102936 59.707023 62.390616 C 59.707023 61.678296 59.492572 61.124987 59.062492 60.728507 C 58.632412 60.325307 58.021468 60.123039 57.228508 60.123039 L 54.779289 60.123039 z M 60.414054 60.123039 C 60.205734 60.123039 60.043919 60.180674 59.929679 60.294914 C 59.815439 60.402434 59.757804 60.55925 59.757804 60.76757 C 59.757804 60.96917 59.815439 61.127939 59.929679 61.242179 C 60.043919 61.356419 60.205734 61.412101 60.414054 61.412101 L 62.197257 61.412101 L 62.197257 66.513663 C 62.197257 66.769023 62.264029 66.966293 62.398429 67.107413 C 62.532829 67.248533 62.729006 67.320303 62.984366 67.320303 C 63.239726 67.320303 63.430905 67.248533 63.558585 67.107413 C 63.692985 66.966293 63.759757 66.769023 63.759757 66.513663 L 63.759757 61.412101 L 65.544913 61.412101 C 65.753233 61.412101 65.913095 61.356419 66.027335 61.242179 C 66.141575 61.127939 66.19921 60.96917 66.19921 60.76757 C 66.19921 60.55925 66.141575 60.402434 66.027335 60.294914 C 65.913095 60.180674 65.753233 60.123039 65.544913 60.123039 L 60.414054 60.123039 z M 55.544914 61.341788 L 56.966789 61.341788 C 57.369989 61.341788 57.674485 61.43074 57.882805 61.60546 C 58.097845 61.78018 58.20507 62.041176 58.20507 62.390616 C 58.20507 62.740056 58.097845 63.006051 57.882805 63.187491 C 57.674485 63.368931 57.369989 63.458976 56.966789 63.458976 L 55.544914 63.458976 L 55.544914 61.341788 z M 41.644526 61.402335 L 42.773432 61.402335 C 43.526072 61.402335 44.090471 61.590468 44.466791 61.966788 C 44.849831 62.336388 45.041009 62.905786 45.041009 63.671866 C 45.041009 64.054906 44.994464 64.390719 44.900384 64.679679 C 44.806304 64.961919 44.664716 65.196597 44.476556 65.384757 C 44.288396 65.572917 44.053718 65.714505 43.771478 65.808585 C 43.489238 65.902665 43.156472 65.94921 42.773432 65.94921 L 41.644526 65.94921 L 41.644526 61.402335 z " />
  <path
     id="text8"
     style="font-weight:800;font-size:10.08px;font-family:Nunito, Arial;dominant-baseline:central;text-anchor:middle;fill:#222222"
     d="M 44.208978 139.88475 C 43.953618 139.88475 43.759394 139.95652 43.624994 140.09764 C 43.490594 140.23876 43.423822 140.43603 43.423822 140.69139 L 43.423822 146.36717 C 43.423822 146.62253 43.490594 146.8198 43.624994 146.96092 C 43.759394 147.10204 43.953618 147.17381 44.208978 147.17381 C 44.464338 147.17381 44.65747 147.10204 44.78515 146.96092 C 44.91955 146.8198 44.986322 146.62253 44.986322 146.36717 L 44.986322 140.69139 C 44.986322 140.43603 44.91955 140.23876 44.78515 140.09764 C 44.65075 139.95652 44.457618 139.88475 44.208978 139.88475 z M 47.103509 139.88475 C 46.895189 139.88475 46.727283 139.95152 46.599603 140.08592 C 46.478643 140.22032 46.417962 140.4165 46.417962 140.67186 L 46.417962 146.416 C 46.417962 146.65792 46.478643 146.84605 46.599603 146.98045 C 46.727283 147.10813 46.907372 147.17381 47.142572 147.17381 C 47.384492 147.17381 47.566533 147.10813 47.687493 146.98045 C 47.808453 146.84605 47.869134 146.65792 47.869134 146.416 L 47.869134 142.53709 L 51.134759 146.70896 C 51.262439 146.87024 51.380754 146.98856 51.488274 147.06248 C 51.602514 147.1364 51.753239 147.17381 51.941399 147.17381 C 52.136279 147.17381 52.29005 147.10813 52.40429 146.98045 C 52.51853 146.84605 52.576165 146.66901 52.576165 146.44725 L 52.576165 140.63084 C 52.576165 140.39564 52.512438 140.2136 52.384758 140.08592 C 52.263798 139.95152 52.084802 139.88475 51.849602 139.88475 C 51.614402 139.88475 51.434314 139.95152 51.306634 140.08592 C 51.185674 140.2136 51.124993 140.39564 51.124993 140.63084 L 51.124993 144.49803 L 47.859368 140.33787 C 47.731688 140.17659 47.616418 140.06327 47.515618 139.99607 C 47.421538 139.92215 47.284949 139.88475 47.103509 139.88475 z " />
  <path
     id="text9"
     style="font-weight:800;font-size:10.08px;font-family:Nunito, Arial;dominant-baseline:central;text-anchor:middle;fill:#222222"
     d="M 41.816401 203.84372 C 41.292241 203.84372 40.811794 203.93072 40.374994 204.10544 C 39.944914 204.28016 39.57474 204.52897 39.26562 204.85153 C 38.9565 205.16737 38.718776 205.55168 38.550776 206.00192 C 38.389496 206.44544 38.308588 206.94612 38.308588 207.50388 C 38.308588 208.23636 38.453222 208.87667 38.742182 209.42771 C 39.037862 209.97875 39.446538 210.4096 39.970698 210.71872 C 40.501578 211.02112 41.117521 211.17185 41.816401 211.17185 C 42.347281 211.17185 42.827727 211.08485 43.257807 210.91013 C 43.687887 210.73541 44.056108 210.48659 44.365228 210.16403 C 44.674348 209.84147 44.914025 209.45607 45.082025 209.00583 C 45.250025 208.55559 45.333978 208.04992 45.333978 207.49216 C 45.333978 206.75968 45.186299 206.12242 44.890619 205.5781 C 44.601659 205.02706 44.194076 204.59925 43.669916 204.29685 C 43.145756 203.99445 42.528721 203.84372 41.816401 203.84372 z M 30.445308 203.86325 C 30.216828 203.86325 30.034787 203.92698 29.900387 204.05466 C 29.772707 204.18234 29.70898 204.36134 29.70898 204.58982 L 29.70898 210.42575 C 29.70898 210.65423 29.769661 210.83323 29.890621 210.96091 C 30.011581 211.08859 30.187531 211.15231 30.416011 211.15231 C 30.651211 211.15231 30.825209 211.08859 30.939449 210.96091 C 31.060409 210.83323 31.121089 210.65423 31.121089 210.42575 L 31.121089 206.76364 L 32.773433 209.70114 C 32.847353 209.8221 32.931306 209.91519 33.025386 209.98239 C 33.119466 210.04959 33.240827 210.08396 33.388667 210.08396 C 33.536507 210.08396 33.654823 210.05263 33.742183 209.99216 C 33.836263 209.92496 33.923262 209.82882 34.003902 209.70114 L 35.656245 206.74216 L 35.656245 210.42575 C 35.656245 210.65423 35.716926 210.83323 35.837886 210.96091 C 35.965566 211.08859 36.144562 211.15231 36.373042 211.15231 C 36.601522 211.15231 36.775519 211.08859 36.896479 210.96091 C 37.017439 210.83323 37.07812 210.65423 37.07812 210.42575 L 37.07812 204.58982 C 37.07812 204.36134 37.014394 204.18234 36.886714 204.05466 C 36.765754 203.92698 36.591756 203.86325 36.363276 203.86325 C 36.168396 203.86325 36.009627 203.90371 35.888667 203.98435 C 35.774427 204.05827 35.667201 204.19072 35.566401 204.37888 L 33.410152 208.32028 L 31.251949 204.37888 C 31.151149 204.19072 31.040878 204.05827 30.919918 203.98435 C 30.805678 203.90371 30.646908 203.86325 30.445308 203.86325 z M 57.943351 203.86325 C 57.687991 203.86325 57.493767 203.93502 57.359367 204.07614 C 57.224967 204.21726 57.158195 204.41453 57.158195 204.66989 L 57.158195 210.34567 C 57.158195 210.60103 57.224967 210.7983 57.359367 210.93942 C 57.493767 211.08054 57.687991 211.15231 57.943351 211.15231 C 58.198711 211.15231 58.38989 211.08054 58.51757 210.93942 C 58.65197 210.7983 58.720695 210.60103 58.720695 210.34567 L 58.720695 204.66989 C 58.720695 204.41453 58.65197 204.21726 58.51757 204.07614 C 58.38317 203.93502 58.191991 203.86325 57.943351 203.86325 z M 60.835929 203.86325 C 60.627609 203.86325 60.459703 203.93198 60.332023 204.06638 C 60.211063 204.20078 60.152335 204.395 60.152335 204.65036 L 60.152335 210.39646 C 60.152335 210.63838 60.211063 210.82651 60.332023 210.96091 C 60.459703 211.08859 60.641745 211.15231 60.876945 211.15231 C 61.118865 211.15231 61.300907 211.08859 61.421867 210.96091 C 61.542827 210.82651 61.603507 210.63838 61.603507 210.39646 L 61.603507 206.5156 L 64.869132 210.68747 C 64.996812 210.84875 65.113174 210.96707 65.220694 211.04099 C 65.334934 211.11491 65.487612 211.15231 65.675772 211.15231 C 65.870652 211.15231 66.024423 211.08859 66.138663 210.96091 C 66.252903 210.82651 66.310538 210.64751 66.310538 210.42575 L 66.310538 204.60935 C 66.310538 204.37415 66.246812 204.19406 66.119132 204.06638 C 65.998172 203.93198 65.819175 203.86325 65.583975 203.86325 C 65.348775 203.86325 65.168687 203.93198 65.041007 204.06638 C 64.920047 204.19406 64.859366 204.37415 64.859366 204.60935 L 64.859366 208.47849 L 61.593742 204.31833 C 61.466062 204.15705 61.350792 204.04178 61.249992 203.97458 C 61.155912 203.90066 61.017369 203.86325 60.835929 203.86325 z M 47.359368 203.95505 C 47.097288 203.95505 46.896973 204.02487 46.755853 204.16599 C 46.614733 204.30711 46.542962 204.50938 46.542962 204.77146 L 46.542962 210.24411 C 46.542962 210.50619 46.614733 210.70846 46.755853 210.84958 C 46.896973 210.9907 47.097288 211.06052 47.359368 211.06052 L 49.326165 211.06052 C 49.937685 211.06052 50.478812 210.98461 50.949212 210.83005 C 51.419612 210.66877 51.816105 210.43714 52.138665 210.13474 C 52.461225 209.83234 52.70504 209.46216 52.87304 209.02536 C 53.04776 208.58184 53.136711 208.07508 53.136711 207.50388 C 53.136711 206.3682 52.803945 205.4943 52.138665 204.88278 C 51.480105 204.26454 50.542485 203.95505 49.326165 203.95505 L 47.359368 203.95505 z M 41.816401 205.1738 C 42.414481 205.1738 42.877745 205.37911 43.207025 205.78903 C 43.536305 206.19223 43.701166 206.76468 43.701166 207.50388 C 43.701166 207.98772 43.623304 208.40748 43.468744 208.76364 C 43.320904 209.11308 43.106453 209.38212 42.824213 209.57028 C 42.548693 209.75172 42.212881 209.84177 41.816401 209.84177 C 41.225041 209.84177 40.764821 209.63645 40.435541 209.22653 C 40.106261 208.80989 39.941401 208.23636 39.941401 207.50388 C 39.941401 207.01332 40.014264 206.5916 40.162104 206.24216 C 40.309944 205.89272 40.526348 205.62868 40.808588 205.44724 C 41.090828 205.2658 41.426641 205.1738 41.816401 205.1738 z M 48.105462 205.23435 L 49.234368 205.23435 C 49.987008 205.23435 50.551407 205.42248 50.927727 205.7988 C 51.310767 206.1684 51.501946 206.7378 51.501946 207.50388 C 51.501946 207.88692 51.455401 208.22273 51.361321 208.51169 C 51.267241 208.79393 51.125653 209.02861 50.937493 209.21677 C 50.749333 209.40493 50.514655 209.54652 50.232415 209.6406 C 49.950175 209.73468 49.617408 209.78122 49.234368 209.78122 L 48.105462 209.78122 L 48.105462 205.23435 z " />
  <rect
     x="47.055111149999995"
     y="295.42253268003"
     width="1.8897635"
     height="7.559054"
     rx="0.94488175"
     fill="#414141"
     stroke="none"
     id="rect10" />
  <path
     id="text10"
     style="font-weight:800;font-size:10.08px;font-family:Nunito, Arial;dominant-baseline:central;text-anchor:middle;fill:#222222"
     d="M 63.880851 306.75191 C 63.309651 306.75191 62.794842 306.83891 62.337882 307.01363 C 61.887642 307.18835 61.505285 307.43716 61.189445 307.75972 C 60.873605 308.07556 60.632835 308.45987 60.464835 308.91011 C 60.303555 309.35363 60.222648 309.85431 60.222648 310.41207 C 60.222648 311.15799 60.367282 311.80634 60.656242 312.35738 C 60.951922 312.9017 61.371687 313.32451 61.916007 313.62691 C 62.460327 313.92931 63.114771 314.08004 63.880851 314.08004 C 64.237011 314.08004 64.596095 314.03349 64.958975 313.93941 C 65.321855 313.84533 65.628304 313.71483 65.876944 313.54683 C 66.024784 313.45275 66.125918 313.33748 66.179678 313.20308 C 66.233438 313.06868 66.245621 312.93514 66.218741 312.80074 C 66.198581 312.66634 66.142899 312.55107 66.048819 312.45699 C 65.961459 312.35616 65.846189 312.29548 65.705069 312.27535 C 65.570669 312.24845 65.416899 312.27978 65.242179 312.36714 C 65.033859 312.48141 64.814409 312.56536 64.585929 312.6191 C 64.364169 312.67283 64.146672 312.69918 63.931632 312.69918 C 63.481392 312.69918 63.10208 312.61218 62.79296 312.43746 C 62.49056 312.25602 62.261973 311.99307 62.107413 311.65035 C 61.952853 311.30763 61.874992 310.89591 61.874992 310.41207 C 61.874992 309.92151 61.952853 309.50783 62.107413 309.17183 C 62.261973 308.83583 62.49056 308.58093 62.79296 308.40621 C 63.10208 308.22477 63.481392 308.13277 63.931632 308.13277 C 64.160112 308.13277 64.385653 308.15911 64.607413 308.21285 C 64.829173 308.26661 65.040579 308.35556 65.242179 308.47652 C 65.410179 308.56385 65.560903 308.59323 65.695303 308.56636 C 65.829703 308.53948 65.939975 308.47576 66.027335 308.37496 C 66.121415 308.27416 66.17905 308.1528 66.19921 308.01168 C 66.22609 307.87056 66.208908 307.72897 66.148428 307.58785 C 66.087948 307.44673 65.974632 307.33037 65.806632 307.23629 C 65.551272 307.08173 65.247869 306.96341 64.898429 306.88277 C 64.555709 306.79541 64.216851 306.75191 63.880851 306.75191 z M 50.544915 306.77144 C 50.289555 306.77144 50.095331 306.84321 49.960931 306.98433 C 49.826531 307.12545 49.759759 307.32272 49.759759 307.57808 L 49.759759 313.25386 C 49.759759 313.50922 49.826531 313.70649 49.960931 313.84761 C 50.095331 313.98873 50.289555 314.0605 50.544915 314.0605 C 50.800275 314.0605 50.991454 313.98873 51.119134 313.84761 C 51.253534 313.70649 51.322259 313.50922 51.322259 313.25386 L 51.322259 311.01558 L 54.626946 311.01558 L 54.626946 313.25386 C 54.626946 313.50922 54.695671 313.70649 54.830071 313.84761 C 54.964471 313.98873 55.155649 314.0605 55.404289 314.0605 C 55.659649 314.0605 55.853874 313.98873 55.988274 313.84761 C 56.122674 313.70649 56.189445 313.50922 56.189445 313.25386 L 56.189445 307.57808 C 56.189445 307.32272 56.122674 307.12545 55.988274 306.98433 C 55.853874 306.84321 55.659649 306.77144 55.404289 306.77144 C 55.155649 306.77144 54.964471 306.84321 54.830071 306.98433 C 54.695671 307.12545 54.626946 307.32272 54.626946 307.57808 L 54.626946 309.7148 L 51.322259 309.7148 L 51.322259 307.57808 C 51.322259 307.32272 51.253534 307.12545 51.119134 306.98433 C 50.984734 306.84321 50.793555 306.77144 50.544915 306.77144 z M 67.31835 306.77144 C 67.13691 306.77144 66.98314 306.81994 66.85546 306.91402 C 66.72778 307.00138 66.643826 307.12579 66.603506 307.28707 C 66.563186 307.44163 66.589505 307.61867 66.683585 307.82027 L 69.222647 313.4648 C 69.310007 313.6664 69.422231 313.81908 69.556631 313.91988 C 69.697751 314.01396 69.874794 314.0605 70.089834 314.0605 C 70.311594 314.0605 70.487545 314.01396 70.615225 313.91988 C 70.749625 313.81908 70.862942 313.6664 70.957022 313.4648 L 73.498037 307.82027 C 73.585397 307.61867 73.611715 307.44163 73.578115 307.28707 C 73.551235 307.12579 73.476419 307.00138 73.355459 306.91402 C 73.241219 306.81994 73.093539 306.77144 72.912099 306.77144 C 72.697059 306.77144 72.529153 306.82299 72.408193 306.92379 C 72.287233 307.02459 72.183053 307.17531 72.095693 307.37691 L 70.121084 311.95308 L 68.144522 307.38668 C 68.063882 307.18508 67.962748 307.03435 67.841788 306.93355 C 67.720828 306.82603 67.54683 306.77144 67.31835 306.77144 z M 23.7832 306.86324 C 23.52112 306.86324 23.318851 306.93306 23.177731 307.07418 C 23.036611 307.2153 22.966794 307.41757 22.966794 307.67965 L 22.966794 313.1523 C 22.966794 313.41438 23.036611 313.61665 23.177731 313.75777 C 23.318851 313.89889 23.52112 313.96871 23.7832 313.96871 L 25.748043 313.96871 C 26.359563 313.96871 26.90069 313.8928 27.37109 313.73824 C 27.84149 313.57696 28.237983 313.34533 28.560543 313.04293 C 28.883103 312.74053 29.128871 312.37035 29.296871 311.93355 C 29.471591 311.49003 29.55859 310.98327 29.55859 310.41207 C 29.55859 309.27639 29.225823 308.40249 28.560543 307.79097 C 27.901983 307.17273 26.964363 306.86324 25.748043 306.86324 L 23.7832 306.86324 z M 31.58398 306.86324 C 31.3219 306.86324 31.121584 306.93306 30.980464 307.07418 C 30.839344 307.2153 30.767574 307.41757 30.767574 307.67965 L 30.767574 313.1523 C 30.767574 313.41438 30.839344 313.61665 30.980464 313.75777 C 31.121584 313.89889 31.3219 313.96871 31.58398 313.96871 L 35.103511 313.96871 C 35.305111 313.96871 35.455836 313.91912 35.556636 313.81832 C 35.664156 313.7108 35.716792 313.55703 35.716792 313.35543 C 35.716792 313.16055 35.664156 313.01091 35.556636 312.91011 C 35.455836 312.80259 35.305111 312.74996 35.103511 312.74996 L 32.259761 312.74996 L 32.259761 310.97652 L 34.871089 310.97652 C 35.079409 310.97652 35.23318 310.92498 35.33398 310.82418 C 35.4415 310.71666 35.496089 310.56289 35.496089 310.36129 C 35.496089 310.15969 35.4415 310.00701 35.33398 309.90621 C 35.23318 309.79869 35.079409 309.74605 34.871089 309.74605 L 32.259761 309.74605 L 32.259761 308.08199 L 35.103511 308.08199 C 35.305111 308.08199 35.455836 308.0324 35.556636 307.9316 C 35.664156 307.82408 35.716792 307.67031 35.716792 307.46871 C 35.716792 307.27383 35.664156 307.1242 35.556636 307.0234 C 35.455836 306.91588 35.305111 306.86324 35.103511 306.86324 L 31.58398 306.86324 z M 37.662104 306.86324 C 37.406744 306.86324 37.209474 306.93001 37.068354 307.06441 C 36.933954 307.19881 36.867182 307.39803 36.867182 307.66011 L 36.867182 313.25386 C 36.867182 313.50922 36.933954 313.70649 37.068354 313.84761 C 37.202754 313.98873 37.396979 314.0605 37.652339 314.0605 C 37.907699 314.0605 38.098877 313.98873 38.226557 313.84761 C 38.360957 313.70649 38.429682 313.50922 38.429682 313.25386 L 38.429682 311.40816 L 40.113276 311.40816 C 40.906236 311.40816 41.51718 311.20784 41.94726 310.80464 C 42.37734 310.40144 42.591791 309.84314 42.591791 309.13082 C 42.591791 308.4185 42.37734 307.86323 41.94726 307.46675 C 41.51718 307.06355 40.906236 306.86324 40.113276 306.86324 L 37.662104 306.86324 z M 43.296869 306.86324 C 43.088549 306.86324 42.928687 306.92087 42.814447 307.03511 C 42.700207 307.14263 42.642572 307.29945 42.642572 307.50777 C 42.642572 307.70937 42.700207 307.86814 42.814447 307.98238 C 42.928687 308.09662 43.088549 308.1523 43.296869 308.1523 L 45.082025 308.1523 L 45.082025 313.25386 C 45.082025 313.50922 45.148797 313.70649 45.283197 313.84761 C 45.417597 313.98873 45.611821 314.0605 45.867181 314.0605 C 46.122541 314.0605 46.315673 313.98873 46.443353 313.84761 C 46.577753 313.70649 46.644525 313.50922 46.644525 313.25386 L 46.644525 308.1523 L 48.427728 308.1523 C 48.636048 308.1523 48.797863 308.09662 48.912103 307.98238 C 49.026343 307.86814 49.083978 307.70937 49.083978 307.50777 C 49.083978 307.29945 49.026343 307.14263 48.912103 307.03511 C 48.797863 306.92087 48.636048 306.86324 48.427728 306.86324 L 43.296869 306.86324 z M 38.429682 308.08199 L 39.849604 308.08199 C 40.252804 308.08199 40.559253 308.16899 40.767573 308.34371 C 40.982613 308.51843 41.089838 308.78138 41.089838 309.13082 C 41.089838 309.48026 40.982613 309.74625 40.767573 309.92769 C 40.559253 310.10913 40.252804 310.19918 39.849604 310.19918 L 38.429682 310.19918 L 38.429682 308.08199 z M 24.529294 308.14254 L 25.6582 308.14254 C 26.41084 308.14254 26.975239 308.33067 27.351559 308.70699 C 27.734599 309.07659 27.925777 309.64599 27.925777 310.41207 C 27.925777 310.79511 27.879232 311.13092 27.785152 311.41988 C 27.691072 311.70212 27.549484 311.9368 27.361324 312.12496 C 27.173164 312.31312 26.938486 312.45471 26.656246 312.54879 C 26.374006 312.64287 26.04124 312.68941 25.6582 312.68941 L 24.529294 312.68941 L 24.529294 308.14254 z " />
  <rect
     x="27.212594399999997"
     y="368.85035174008993"
     width="41.574797"
     height="58.68766376006"
     rx="7.559054"
     fill="#1F1F1F"
     stroke="none"
     id="rect11" />
  <path
     id="text11"
     style="font-weight:800;font-size:10.08px;font-family:Nunito, Arial;dominant-baseline:central;text-anchor:middle;fill:#eaeaea"
     d="M 41.070307 376.40034 C 40.546147 376.40034 40.065701 376.48734 39.628901 376.66206 C 39.198821 376.83678 38.828646 377.08559 38.519526 377.40815 C 38.210406 377.72399 37.972682 378.10635 37.804682 378.55659 C 37.643402 379.00011 37.562495 379.50078 37.562495 380.05854 C 37.562495 380.79102 37.707129 381.43328 37.996089 381.98432 C 38.291769 382.53536 38.700444 382.96622 39.224604 383.27534 C 39.755484 383.57774 40.371427 383.72846 41.070307 383.72846 C 41.601187 383.72846 42.081633 383.64146 42.511713 383.46674 C 42.941793 383.29202 43.311968 383.04321 43.621088 382.72065 C 43.930208 382.39809 44.167931 382.01073 44.335931 381.56049 C 44.503931 381.11025 44.587885 380.60654 44.587885 380.04878 C 44.587885 379.3163 44.440205 378.67903 44.144525 378.13471 C 43.855565 377.58367 43.447982 377.15586 42.923822 376.85346 C 42.399662 376.55106 41.782627 376.40034 41.070307 376.40034 z M 46.533197 376.41987 C 46.277837 376.41987 46.083612 376.4886 45.949212 376.623 C 45.814812 376.7574 45.748041 376.95467 45.748041 377.21675 L 45.748041 380.64448 C 45.748041 381.1552 45.811767 381.60433 45.939447 381.99409 C 46.073847 382.37713 46.271117 382.69771 46.533197 382.95307 C 46.795277 383.20843 47.118907 383.40266 47.501947 383.53706 C 47.891707 383.66474 48.33779 383.72846 48.84179 383.72846 C 49.51379 383.72846 50.075144 383.61515 50.525384 383.38667 C 50.982344 383.15819 51.324247 382.81433 51.552727 382.35737 C 51.787927 381.89369 51.906243 381.3232 51.906243 380.64448 L 51.906243 377.21675 C 51.906243 376.95467 51.839471 376.7574 51.705071 376.623 C 51.577391 376.4886 51.389258 376.41987 51.140618 376.41987 C 50.891978 376.41987 50.698846 376.4886 50.564446 376.623 C 50.430046 376.7574 50.363274 376.95467 50.363274 377.21675 L 50.363274 380.65424 C 50.363274 381.23216 50.232776 381.66911 49.970696 381.96479 C 49.715336 382.25375 49.33907 382.39839 48.84179 382.39839 C 48.34451 382.39839 47.965198 382.25375 47.703118 381.96479 C 47.441038 381.66911 47.308587 381.23216 47.308587 380.65424 L 47.308587 377.21675 C 47.308587 376.95467 47.241815 376.7574 47.107415 376.623 C 46.973015 376.4886 46.781837 376.41987 46.533197 376.41987 z M 53.195305 376.51167 C 52.986985 376.51167 52.827123 376.56735 52.712883 376.68159 C 52.598643 376.78911 52.541008 376.94788 52.541008 377.1562 C 52.541008 377.3578 52.598643 377.51657 52.712883 377.63081 C 52.827123 377.74505 52.986985 377.80073 53.195305 377.80073 L 54.980461 377.80073 L 54.980461 382.90229 C 54.980461 383.15765 55.047233 383.35492 55.181633 383.49604 C 55.316033 383.63716 55.51221 383.70893 55.76757 383.70893 C 56.02293 383.70893 56.214109 383.63716 56.341789 383.49604 C 56.476189 383.35492 56.542961 383.15765 56.542961 382.90229 L 56.542961 377.80073 L 58.326164 377.80073 C 58.534484 377.80073 58.696299 377.74505 58.810539 377.63081 C 58.924779 377.51657 58.982414 377.3578 58.982414 377.1562 C 58.982414 376.94788 58.924779 376.78911 58.810539 376.68159 C 58.696299 376.56735 58.534484 376.51167 58.326164 376.51167 L 53.195305 376.51167 z M 41.070307 377.73042 C 41.668387 377.73042 42.131652 377.93573 42.460932 378.34565 C 42.790212 378.74885 42.955072 379.31934 42.955072 380.05854 C 42.955072 380.54238 42.87721 380.9641 42.72265 381.32026 C 42.57481 381.6697 42.360359 381.93679 42.078119 382.12495 C 41.802599 382.30639 41.466787 382.39839 41.070307 382.39839 C 40.478947 382.39839 40.018728 382.19307 39.689448 381.78315 C 39.360168 381.36651 39.195307 380.79102 39.195307 380.05854 C 39.195307 379.56798 39.26817 379.14822 39.41601 378.79878 C 39.56385 378.44934 39.780255 378.18529 40.062495 378.00385 C 40.344735 377.82241 40.680547 377.73042 41.070307 377.73042 z " />
  <circle
     cx="47.999992899999995"
     cy="405.80573525015"
     r="16.06298975"
     fill="#2E2E2E"
     stroke="#1A1A1A"
     stroke-width="1"
     id="circle12" />
</svg>
