<?xml version="1.0" encoding="UTF-8" standalone="no"?>
<svg
   width="30.48mm"
   height="128.5mm"
   viewBox="0 0 115.19998 485.66922"
   version="1.1"
   id="svg14"
   xmlns="http://www.w3.org/2000/svg"
   xmlns:svg="http://www.w3.org/2000/svg">
  <defs
     id="defs14" />
  <rect
     x="0"
     y="0"
     width="115.19998"
     height="485.66922"
     fill="#eaeaea"
     id="rect1" />
  <rect
     x="1.1338581"
     y="1.1338581"
     width="112.93227"
     height="483.40149"
     fill="none"
     stroke="#b3b3b3"
     stroke-width="2.26772"
     id="rect2" />
  <path
     id="text5"
     style="font-weight:800;font-size:15.12px;font-family:Nunito, Arial;dominant-baseline:central;text-anchor:middle;fill:#222222"
     d="m 49.283197,20.162107 c -0.46368,0 -0.790902,0.136043 -0.982422,0.408203 -0.18144,0.27216 -0.205258,0.599382 -0.07422,0.982422 l 3.052734,8.587889 c 0.12096,0.32256 0.282774,0.565283 0.484374,0.726563 0.2016,0.1512 0.46455,0.226562 0.78711,0.226562 0.32256,0 0.574419,-0.07536 0.755859,-0.226562 0.19152,-0.16128 0.34779,-0.398458 0.46875,-0.710938 l 2.236328,-6.261718 2.208984,6.246093 c 0.12096,0.32256 0.27723,0.565283 0.46875,0.726563 0.19152,0.1512 0.446971,0.226562 0.769531,0.226562 0.33264,0 0.595589,-0.07536 0.787109,-0.226562 0.19152,-0.16128 0.342245,-0.398458 0.453125,-0.710938 l 3.083984,-8.603514 c 0.14112,-0.38304 0.120893,-0.710262 -0.06055,-0.982422 -0.18144,-0.27216 -0.468208,-0.408203 -0.861328,-0.408203 -0.31248,0 -0.558794,0.08091 -0.740234,0.242187 -0.18144,0.1512 -0.323028,0.382833 -0.423828,0.695313 l -2.257812,6.603515 -2.232422,-6.574218 c -0.12096,-0.33264 -0.268093,-0.57341 -0.439453,-0.72461 -0.17136,-0.16128 -0.397447,-0.242187 -0.679687,-0.242187 -0.29232,0 -0.529498,0.08091 -0.710938,0.242187 -0.17136,0.1512 -0.31654,0.386425 -0.4375,0.708985 l -2.296874,6.468749 -2.179688,-6.482421 c -0.11088,-0.32256 -0.25606,-0.559738 -0.4375,-0.710938 -0.17136,-0.1512 -0.419627,-0.226562 -0.742187,-0.226562 z m 17.38867,0 c -0.34272,0 -0.614806,0.09559 -0.816406,0.287109 -0.19152,0.19152 -0.28711,0.458061 -0.28711,0.800781 v 8.753906 c 0,0.34272 0.09004,0.611214 0.271485,0.802734 0.18144,0.19152 0.444389,0.287109 0.787109,0.287109 0.3528,0 0.613796,-0.09559 0.785156,-0.287109 0.18144,-0.19152 0.273437,-0.460014 0.273437,-0.802734 v -5.492187 l 2.478516,4.404296 c 0.11088,0.18144 0.237786,0.323028 0.378906,0.423828 0.14112,0.1008 0.323162,0.150391 0.544922,0.150391 0.22176,0 0.398257,-0.04405 0.529297,-0.134766 0.14112,-0.1008 0.271618,-0.247933 0.392578,-0.439453 l 2.478515,-4.437499 v 5.52539 c 0,0.34272 0.092,0.611214 0.273437,0.802734 0.19152,0.19152 0.458062,0.287109 0.800782,0.287109 0.34272,0 0.605669,-0.09559 0.787109,-0.287109 0.18144,-0.19152 0.271484,-0.460014 0.271484,-0.802734 v -8.753906 c 0,-0.34272 -0.09559,-0.609261 -0.287109,-0.800781 -0.18144,-0.19152 -0.444389,-0.287109 -0.787109,-0.287109 -0.29232,0 -0.529498,0.06068 -0.710938,0.18164 -0.17136,0.11088 -0.331222,0.307604 -0.482422,0.589844 l -3.236327,5.908203 -3.236328,-5.908203 c -0.1512,-0.28224 -0.316607,-0.478964 -0.498047,-0.589844 -0.17136,-0.12096 -0.408537,-0.18164 -0.710937,-0.18164 z m -26.914059,0.134765 c -0.38304,0 -0.678945,0.101135 -0.890625,0.302735 -0.2016,0.2016 -0.302735,0.499458 -0.302735,0.892578 v 8.390624 c 0,0.38304 0.101135,0.680898 0.302735,0.892578 0.2016,0.21168 0.493913,0.318359 0.876953,0.318359 0.38304,0 0.669808,-0.106679 0.861328,-0.318359 0.2016,-0.21168 0.302734,-0.509538 0.302734,-0.892578 v -2.765625 h 2.523437 c 1.18944,0 2.106833,-0.303403 2.751953,-0.908203 0.64512,-0.6048 0.96875,-1.441285 0.96875,-2.509765 0,-1.06848 -0.32363,-1.899421 -0.96875,-2.494141 -0.64512,-0.6048 -1.562513,-0.908203 -2.751953,-0.908203 z m 1.15039,1.830078 h 2.130859 c 0.6048,0 1.064473,0.130498 1.376953,0.392578 0.32256,0.26208 0.482422,0.655528 0.482422,1.179688 0,0.52416 -0.159862,0.923152 -0.482422,1.195312 -0.31248,0.27216 -0.772153,0.408203 -1.376953,0.408203 h -2.130859 z" />
  <path
     id="text6"
     style="font-style:italic;font-weight:800;font-size:15.12px;font-family:Nunito, Arial;dominant-baseline:central;text-anchor:middle;fill:#222222"
     d="m 84.716786,450.93744 c -0.43344,0 -0.775343,0.10114 -1.027343,0.30274 -0.252,0.19152 -0.40827,0.48383 -0.46875,0.87695 -0.04032,0.3528 0.03504,0.62489 0.226562,0.81641 0.2016,0.19152 0.505003,0.28711 0.908203,0.28711 0.43344,0 0.775344,-0.0956 1.027344,-0.28711 0.252,-0.2016 0.402725,-0.49392 0.453125,-0.87696 0.06048,-0.36288 -0.0093,-0.64051 -0.210938,-0.83203 -0.2016,-0.19152 -0.505003,-0.28711 -0.908203,-0.28711 z m -25.945309,0.27344 c -0.31248,0 -0.569884,0.0643 -0.771484,0.19531 -0.2016,0.12096 -0.387234,0.32323 -0.558594,0.60547 l -5.414062,8.75391 c -0.1512,0.252 -0.206335,0.48363 -0.166015,0.69531 0.03024,0.2016 0.136919,0.36896 0.318359,0.5 0.19152,0.12096 0.423152,0.18164 0.695312,0.18164 0.27216,0 0.498248,-0.0551 0.679688,-0.16601 0.19152,-0.12096 0.353335,-0.29387 0.484375,-0.51563 l 1.029297,-1.76758 h 5.009765 l 0.371093,1.41992 c 0.09072,0.3528 0.223171,0.61575 0.394531,0.78711 0.18144,0.16128 0.442437,0.24219 0.785157,0.24219 0.24192,0 0.449733,-0.0551 0.621093,-0.16601 0.17136,-0.11088 0.287176,-0.26715 0.347656,-0.46875 0.06048,-0.21168 0.0458,-0.47463 -0.04492,-0.78711 l -2.556641,-8.54297 c -0.09072,-0.32256 -0.241445,-0.56333 -0.453125,-0.72461 -0.2016,-0.16128 -0.459004,-0.24219 -0.771484,-0.24219 z m 21.833982,0 c -0.37296,0 -0.670818,0.0901 -0.892578,0.27149 -0.22176,0.18144 -0.363348,0.45907 -0.423828,0.83203 l -0.527344,3.40625 c -0.177806,-0.38542 -0.445159,-0.68365 -0.802734,-0.89649 -0.41328,-0.26208 -0.896772,-0.39258 -1.451172,-0.39258 -0.756,0 -1.415988,0.19673 -1.980468,0.58985 -0.56448,0.39312 -0.998382,0.93175 -1.300782,1.61719 -0.3024,0.67536 -0.453125,1.44561 -0.453125,2.31249 0,0.6552 0.110272,1.22515 0.332032,1.70899 0.23184,0.47376 0.553516,0.84698 0.966796,1.11914 0.42336,0.26208 0.912397,0.39258 1.466797,0.39258 0.54432,0 1.038902,-0.1305 1.482422,-0.39258 0.381273,-0.2253 0.702757,-0.51757 0.964843,-0.87695 -0.04368,0.35774 0.0025,0.65001 0.138672,0.87695 0.16128,0.24192 0.418685,0.36328 0.771485,0.36328 0.37296,0 0.670818,-0.0956 0.892578,-0.28711 0.22176,-0.2016 0.357803,-0.49391 0.408203,-0.87695 l 1.345703,-8.45313 c 0.06048,-0.42336 0.0089,-0.74503 -0.152344,-0.96679 -0.16128,-0.23184 -0.422276,-0.34766 -0.785156,-0.34766 z m -56.519524,0.13477 c -0.39312,0 -0.70566,0.10113 -0.9375,0.30273 -0.23184,0.19152 -0.371475,0.47829 -0.421875,0.86133 l -1.316406,8.24219 c -0.07056,0.43344 -0.02097,0.77534 0.15039,1.02734 0.18144,0.24192 0.455479,0.36328 0.818359,0.36328 0.39312,0 0.700115,-0.0956 0.921875,-0.28711 0.23184,-0.2016 0.37702,-0.49946 0.4375,-0.89258 l 0.46875,-3.08398 h 1.255859 c 0.34272,0 0.609262,0.0698 0.800782,0.21094 0.2016,0.13104 0.35787,0.35712 0.46875,0.67968 l 0.892578,2.34375 c 0.13104,0.3528 0.292855,0.61575 0.484375,0.78711 0.19152,0.16128 0.446971,0.24219 0.769531,0.24219 0.33264,0 0.590044,-0.0607 0.771484,-0.18164 0.18144,-0.12096 0.288119,-0.29191 0.318359,-0.51367 0.04032,-0.23184 -1.33e-4,-0.50393 -0.121093,-0.81641 l -0.574219,-1.48242 c -0.19152,-0.48384 -0.443379,-0.8626 -0.755859,-1.13476 -0.130421,-0.1178 -0.277427,-0.21067 -0.439453,-0.2793 0.309058,-0.0596 0.601244,-0.14328 0.876953,-0.25 0.62496,-0.252 1.113996,-0.63436 1.466796,-1.14844 0.3528,-0.52416 0.529297,-1.18969 0.529297,-1.99609 0,-0.92736 -0.318085,-1.65717 -0.953125,-2.19141 -0.62496,-0.53424 -1.531263,-0.80273 -2.720703,-0.80273 z m 0.876953,1.83008 h 1.935546 c 0.62496,0 1.079088,0.11581 1.361328,0.34765 0.29232,0.22176 0.4375,0.56007 0.4375,1.01367 0,0.54432 -0.165407,0.958 -0.498047,1.24024 -0.33264,0.27216 -0.806995,0.4082 -1.421875,0.4082 h -2.296874 z m 33.537105,0.66601 h 0.0293 l 1.05664,4.02148 H 56.14648 Z m -22.787107,0.58984 c -0.79632,0 -1.511444,0.18564 -2.146484,0.5586 -0.62496,0.37296 -1.117588,0.88222 -1.480468,1.52734 -0.36288,0.64512 -0.544922,1.39156 -0.544922,2.23828 0,0.67536 0.15627,1.26913 0.46875,1.78321 0.31248,0.51408 0.755518,0.91666 1.330078,1.20898 0.57456,0.28224 1.24923,0.42383 2.02539,0.42383 0.38304,0 0.796714,-0.0496 1.240234,-0.15039 0.44352,-0.0907 0.842513,-0.23231 1.195313,-0.42383 0.2016,-0.11088 0.34678,-0.24692 0.4375,-0.4082 0.1008,-0.17136 0.146798,-0.33677 0.136718,-0.49805 0,-0.17136 -0.046,-0.32404 -0.136718,-0.45508 -0.09072,-0.13101 -0.221219,-0.21192 -0.392579,-0.24219 -0.16128,-0.0403 -0.352458,-0.003 -0.574218,0.10743 -0.24192,0.12097 -0.519551,0.21101 -0.832031,0.27148 -0.3024,0.0605 -0.583623,0.0898 -0.845703,0.0898 -0.69552,0 -1.215874,-0.18563 -1.558594,-0.55859 -0.252995,-0.29133 -0.376611,-0.66455 -0.373047,-1.11914 h 4.623047 c 0.17136,0 0.307403,-0.0294 0.408203,-0.0898 0.1008,-0.0706 0.165072,-0.22324 0.195312,-0.45508 0.0504,-0.48384 0.03017,-0.9507 -0.06055,-1.4043 -0.08064,-0.46368 -0.246047,-0.87376 -0.498047,-1.22656 -0.252,-0.36288 -0.595856,-0.64965 -1.029296,-0.86133 -0.43344,-0.21168 -0.962931,-0.31641 -1.587891,-0.31641 z m 54.599603,0 c -0.56448,0 -1.105061,0.0956 -1.619141,0.28711 -0.504,0.19152 -0.956174,0.47275 -1.359374,0.84571 -0.39312,0.36288 -0.70566,0.817 -0.9375,1.36132 -0.22176,0.53424 -0.333985,1.14464 -0.333985,1.83008 0,0.68544 0.141588,1.28475 0.423828,1.79883 0.29232,0.51408 0.71154,0.91112 1.25586,1.19336 0.54432,0.28224 1.198763,0.42383 1.964843,0.42383 0.56448,0 1.099516,-0.0956 1.603516,-0.28711 0.51408,-0.19152 0.966254,-0.47274 1.359374,-0.8457 0.4032,-0.37296 0.721285,-0.82709 0.953125,-1.36133 0.23184,-0.53424 0.347656,-1.15019 0.347656,-1.84571 0,-0.68544 -0.145179,-1.28474 -0.437499,-1.79882 -0.29232,-0.51408 -0.71154,-0.90753 -1.25586,-1.17969 -0.54432,-0.28224 -1.198763,-0.42188 -1.964843,-0.42188 z m -48.701166,0.0293 c -0.27216,0 -0.500201,0.0754 -0.681641,0.22656 -0.17136,0.14112 -0.272494,0.32871 -0.302734,0.56055 -0.03024,0.22176 0.03599,0.46253 0.197266,0.72461 l 1.429687,2.17969 -2.382812,2.46289 c -0.2016,0.22176 -0.306326,0.45339 -0.316406,0.69531 -0.01008,0.23184 0.06528,0.42856 0.226562,0.58984 0.17136,0.16128 0.412129,0.24219 0.724609,0.24219 0.26208,0 0.475439,-0.0515 0.636719,-0.15234 0.16128,-0.1008 0.337777,-0.25153 0.529297,-0.45313 l 1.716796,-1.80078 1.080078,1.69531 c 0.1512,0.23184 0.327697,0.40834 0.529297,0.5293 0.2016,0.12096 0.422143,0.18164 0.664063,0.18164 0.27216,0 0.5002,-0.0754 0.68164,-0.22656 0.18144,-0.1512 0.286166,-0.34433 0.316406,-0.57617 0.04032,-0.24192 -0.02395,-0.48824 -0.195312,-0.74024 l -1.55664,-2.33984 2.175781,-2.30078 c 0.2016,-0.22176 0.308279,-0.4498 0.318359,-0.68164 0.01008,-0.23184 -0.06724,-0.42302 -0.228516,-0.57422 -0.16128,-0.16128 -0.402049,-0.24219 -0.724609,-0.24219 -0.26208,0 -0.479031,0.0515 -0.650391,0.15234 -0.16128,0.0907 -0.337776,0.2359 -0.529296,0.4375 l -1.486328,1.66602 -0.962891,-1.54492 c -0.1512,-0.24192 -0.322152,-0.41842 -0.513672,-0.5293 -0.19152,-0.12096 -0.423152,-0.18164 -0.695312,-0.18164 z m 24.296872,0 c -0.3528,0 -0.634023,0.0865 -0.845703,0.25781 -0.21168,0.17136 -0.344131,0.4379 -0.394531,0.80078 l -0.558594,3.47852 c -0.12096,0.72576 -0.100733,1.32507 0.06055,1.79883 0.16128,0.46368 0.427821,0.81113 0.800781,1.04297 0.37296,0.22176 0.821543,0.33203 1.345703,0.33203 0.58464,0 1.10304,-0.13605 1.55664,-0.40821 0.37272,-0.21877 0.681371,-0.52204 0.923828,-0.91015 l -0.01563,0.10937 c -0.0504,0.4032 0.0047,0.70106 0.166016,0.89258 0.17136,0.19152 0.434309,0.28711 0.787109,0.28711 0.71568,0 1.127401,-0.35854 1.238281,-1.07422 l 0.832032,-5.35156 c 0.06048,-0.4032 0.0053,-0.71215 -0.166016,-0.92383 -0.17136,-0.22176 -0.452583,-0.33203 -0.845703,-0.33203 -0.3528,0 -0.630431,0.0865 -0.832031,0.25781 -0.2016,0.17136 -0.332098,0.4379 -0.392578,0.80078 l -0.484375,3.02344 c -0.09072,0.57456 -0.292989,1.02869 -0.605469,1.36133 -0.3024,0.32256 -0.695847,0.48437 -1.179687,0.48437 -0.38304,0 -0.644036,-0.11581 -0.785156,-0.34765 -0.14112,-0.24192 -0.176029,-0.60046 -0.105469,-1.07422 l 0.513672,-3.25 c 0.0504,-0.41328 -0.01028,-0.72582 -0.181641,-0.9375 -0.17136,-0.21168 -0.448991,-0.31836 -0.832031,-0.31836 z m 18.234373,0 c -0.38304,0 -0.68449,0.0956 -0.90625,0.28711 -0.22176,0.18144 -0.357803,0.46462 -0.408203,0.84766 l -0.832031,5.21679 c -0.07056,0.41328 -0.02456,0.7405 0.136718,0.98242 0.17136,0.23184 0.432356,0.34766 0.785156,0.34766 0.39312,0 0.696523,-0.0956 0.908203,-0.28711 0.21168,-0.19152 0.347724,-0.47469 0.408204,-0.84765 l 0.832031,-5.2168 c 0.06048,-0.42336 0.0089,-0.75058 -0.152344,-0.98242 -0.16128,-0.23184 -0.418684,-0.34766 -0.771484,-0.34766 z m -48.443354,1.48242 c 0.38304,0 0.68449,0.0845 0.90625,0.25586 0.22176,0.16128 0.372485,0.38378 0.453125,0.66602 0.06456,0.21788 0.08779,0.4642 0.06836,0.74023 h -3.306641 c 0.0629,-0.2562 0.154526,-0.49338 0.275391,-0.71094 0.1512,-0.28224 0.359014,-0.50832 0.621094,-0.67968 0.27216,-0.18144 0.599381,-0.27149 0.982421,-0.27149 z m 41.277339,0.19532 c 0.43344,0 0.771752,0.14158 1.013672,0.42382 0.252,0.27216 0.376953,0.67116 0.376953,1.19532 0,0.51408 -0.07536,0.9718 -0.226563,1.375 -0.1512,0.4032 -0.36815,0.72683 -0.65039,0.96875 -0.28224,0.24192 -0.624144,0.36132 -1.027344,0.36132 -0.43344,0 -0.777297,-0.13963 -1.029297,-0.42187 -0.24192,-0.28224 -0.363281,-0.68678 -0.363281,-1.21094 0,-0.51408 0.07732,-0.9718 0.228516,-1.375 0.1512,-0.41328 0.366197,-0.73691 0.648437,-0.96875 0.28224,-0.23184 0.626097,-0.34765 1.029297,-0.34765 z m 13.291014,0 c 0.43344,0 0.775344,0.14158 1.027344,0.42382 0.252,0.27216 0.378906,0.67116 0.378906,1.19532 0,0.51408 -0.08091,0.97734 -0.242188,1.39062 -0.1512,0.4032 -0.36815,0.72488 -0.65039,0.9668 -0.27216,0.23184 -0.610472,0.34765 -1.013672,0.34765 -0.44352,0 -0.790969,-0.13963 -1.042969,-0.42187 -0.24192,-0.28224 -0.363281,-0.68678 -0.363281,-1.21094 0,-0.51408 0.07536,-0.9718 0.226563,-1.375 0.1512,-0.41328 0.36815,-0.73691 0.65039,-0.96875 0.29232,-0.23184 0.636177,-0.34765 1.029297,-0.34765 z" />
  <path
     id="text7"
     style="font-weight:800;font-size:10.08px;font-family:Nunito, Arial;dominant-baseline:central;text-anchor:middle;fill:#222222"
     d="m 31.132809,46.699213 c -0.25536,0 -0.449585,0.06982 -0.583985,0.210937 -0.1344,0.14112 -0.203125,0.340343 -0.203125,0.595703 v 5.673828 c 0,0.25536 0.06873,0.454583 0.203125,0.595703 0.1344,0.14112 0.328625,0.210937 0.583985,0.210937 0.25536,0 0.446538,-0.06982 0.574218,-0.210937 0.1344,-0.14112 0.201172,-0.340343 0.201172,-0.595703 v -5.673828 c 0,-0.25536 -0.06677,-0.454583 -0.201172,-0.595703 -0.1344,-0.14112 -0.325578,-0.210937 -0.574218,-0.210937 z m 2.892577,0 c -0.20832,0 -0.376226,0.06677 -0.503906,0.201172 -0.12096,0.1344 -0.18164,0.328624 -0.18164,0.583984 v 5.746093 c 0,0.24192 0.06068,0.430053 0.18164,0.564453 0.12768,0.12768 0.309722,0.191406 0.544922,0.191406 0.24192,0 0.423962,-0.06373 0.544922,-0.191406 0.12096,-0.1344 0.179687,-0.322533 0.179687,-0.564453 v -3.878906 l 3.267578,4.171875 c 0.12768,0.16128 0.244042,0.277642 0.351562,0.351562 0.11424,0.07392 0.264965,0.111328 0.453125,0.111328 0.19488,0 0.350604,-0.06373 0.464844,-0.191406 0.11424,-0.1344 0.171875,-0.311443 0.171875,-0.533203 v -5.816405 c 0,-0.2352 -0.06373,-0.417242 -0.191406,-0.544922 -0.12096,-0.1344 -0.299956,-0.201172 -0.535156,-0.201172 -0.2352,0 -0.417242,0.06677 -0.544922,0.201172 -0.12096,0.12768 -0.181641,0.309722 -0.181641,0.544922 v 3.865234 l -3.265624,-4.158203 c -0.12768,-0.16128 -0.240997,-0.274597 -0.341797,-0.341797 -0.09408,-0.07392 -0.232623,-0.111328 -0.414063,-0.111328 z" />
  <path
     id="text8"
     style="font-weight:800;font-size:10.08px;font-family:Nunito, Arial;dominant-baseline:central;text-anchor:middle;fill:#222222"
     d="m 74.398428,46.275385 c -0.09922,0.0029 -0.196935,0.03688 -0.291015,0.101562 -0.10752,0.0672 -0.183429,0.174426 -0.230469,0.322266 l -2.279297,7.105468 c -0.05376,0.16128 -0.0568,0.299822 -0.0098,0.414062 0.04704,0.11424 0.121856,0.201239 0.222656,0.261719 0.1008,0.0672 0.211071,0.101562 0.332031,0.101562 0.12768,0 0.240997,-0.03436 0.341797,-0.101562 0.10752,-0.0672 0.185382,-0.174426 0.232422,-0.322266 l 2.279296,-7.117186 c 0.05376,-0.16128 0.05681,-0.294824 0.0098,-0.402344 -0.04704,-0.11424 -0.124902,-0.201239 -0.232422,-0.261719 -0.1008,-0.0672 -0.211071,-0.101562 -0.332031,-0.101562 -0.01428,-8.4e-4 -0.02879,-4.2e-4 -0.04297,0 z m 4.478515,0.402344 c -0.52416,0 -1.004606,0.08895 -1.441406,0.263671 -0.43008,0.17472 -0.800255,0.423534 -1.109375,0.746094 -0.30912,0.31584 -0.548796,0.698197 -0.716796,1.148437 -0.16128,0.44352 -0.240235,0.944193 -0.240235,1.501953 0,0.73248 0.142681,1.374741 0.431641,1.925781 0.29568,0.55104 0.706308,0.979943 1.230468,1.289063 0.53088,0.3024 1.146823,0.453125 1.845703,0.453125 0.53088,0 1.011326,-0.087 1.441406,-0.261719 0.43008,-0.17472 0.798302,-0.423534 1.107422,-0.746094 0.30912,-0.32256 0.548797,-0.707963 0.716797,-1.158203 0.168,-0.45024 0.251953,-0.953959 0.251953,-1.511718 0,-0.73248 -0.147679,-1.371696 -0.443359,-1.916016 -0.28896,-0.55104 -0.696543,-0.976896 -1.220703,-1.279296 -0.52416,-0.3024 -1.141196,-0.455078 -1.853516,-0.455078 z m 8.173827,0 c -0.5712,0 -1.086008,0.08895 -1.542968,0.263671 -0.45024,0.17472 -0.832597,0.423534 -1.148437,0.746094 -0.31584,0.31584 -0.55661,0.698197 -0.72461,1.148437 -0.16128,0.44352 -0.242187,0.944193 -0.242187,1.501953 0,0.74592 0.144633,1.394273 0.433593,1.945313 0.29568,0.54432 0.715446,0.967131 1.259766,1.269531 0.54432,0.3024 1.198763,0.453125 1.964843,0.453125 0.35616,0 0.715245,-0.04655 1.078125,-0.140625 0.36288,-0.09408 0.669329,-0.224578 0.917969,-0.392578 0.14784,-0.09408 0.248974,-0.20935 0.302734,-0.34375 0.05376,-0.1344 0.06594,-0.267944 0.03906,-0.402344 -0.02016,-0.1344 -0.07584,-0.247717 -0.169922,-0.341797 -0.08736,-0.1008 -0.20263,-0.16148 -0.34375,-0.18164 -0.1344,-0.02688 -0.288171,0.0025 -0.462891,0.08984 -0.20832,0.11424 -0.42777,0.198193 -0.65625,0.251953 -0.22176,0.05376 -0.439256,0.08008 -0.654296,0.08008 -0.45024,0 -0.829552,-0.087 -1.138672,-0.261718 -0.3024,-0.18144 -0.530987,-0.442436 -0.685547,-0.785156 -0.15456,-0.34272 -0.232422,-0.756395 -0.232422,-1.240235 0,-0.49056 0.07786,-0.904234 0.232422,-1.240234 0.15456,-0.336 0.383147,-0.590905 0.685547,-0.765625 0.30912,-0.18144 0.688432,-0.273437 1.138672,-0.273437 0.22848,0 0.454021,0.02827 0.675781,0.08203 0.22176,0.05376 0.433165,0.140759 0.634765,0.261719 0.168,0.08736 0.318725,0.116723 0.453125,0.08984 0.1344,-0.02688 0.244672,-0.09061 0.332032,-0.191406 0.09408,-0.1008 0.151715,-0.220208 0.171875,-0.361328 0.02688,-0.14112 0.0097,-0.282708 -0.05078,-0.423828 -0.06048,-0.14112 -0.173797,-0.259435 -0.341797,-0.353515 -0.25536,-0.15456 -0.558763,-0.270923 -0.908203,-0.351563 -0.34272,-0.08736 -0.681578,-0.132812 -1.017578,-0.132812 z m -21.652341,0.02148 c -0.18144,0 -0.33521,0.04655 -0.46289,0.140625 -0.12768,0.08736 -0.211633,0.211767 -0.251953,0.373047 -0.04032,0.15456 -0.014,0.331603 0.08008,0.533203 l 2.541015,5.646484 c 0.08736,0.2016 0.197631,0.352324 0.332031,0.453124 0.14112,0.09408 0.320117,0.140625 0.535157,0.140625 0.22176,0 0.395757,-0.04654 0.523437,-0.140625 0.1344,-0.1008 0.247717,-0.251524 0.341797,-0.453124 l 2.541015,-5.646484 c 0.08736,-0.2016 0.113678,-0.378643 0.08008,-0.533203 -0.02688,-0.16128 -0.09974,-0.285687 -0.220703,-0.373047 -0.11424,-0.09408 -0.261919,-0.140625 -0.443359,-0.140625 -0.21504,0 -0.382946,0.04959 -0.503906,0.150391 -0.12096,0.1008 -0.22514,0.251525 -0.3125,0.453125 l -1.976563,4.578124 -1.974609,-4.566406 c -0.08064,-0.2016 -0.181774,-0.354278 -0.302734,-0.455078 -0.12096,-0.10752 -0.296911,-0.160156 -0.525391,-0.160156 z m 24.9082,0.08984 c -0.20832,0 -0.370135,0.05763 -0.484375,0.171875 -0.11424,0.10752 -0.169921,0.266289 -0.169921,0.474609 0,0.2016 0.05568,0.358416 0.169921,0.472656 0.11424,0.11424 0.276055,0.171875 0.484375,0.171875 h 1.785156 v 5.099609 c 0,0.25536 0.06677,0.454583 0.201172,0.595703 0.1344,0.14112 0.328625,0.210937 0.583985,0.210937 0.25536,0 0.446538,-0.06982 0.574218,-0.210937 0.1344,-0.14112 0.201172,-0.340343 0.201172,-0.595703 v -5.099609 h 1.785156 c 0.20832,0 0.370135,-0.05764 0.484375,-0.171875 0.11424,-0.11424 0.169922,-0.271056 0.169922,-0.472656 0,-0.20832 -0.05568,-0.367089 -0.169922,-0.474609 -0.11424,-0.11424 -0.276055,-0.171875 -0.484375,-0.171875 z M 78.876943,48.00976 c 0.59808,0 1.061345,0.203361 1.390625,0.613281 0.32928,0.4032 0.494141,0.975643 0.494141,1.714843 0,0.48384 -0.07786,0.903606 -0.232422,1.259766 -0.14784,0.34944 -0.362291,0.61848 -0.644531,0.80664 -0.27552,0.18144 -0.611333,0.271485 -1.007813,0.271485 -0.59136,0 -1.053532,-0.205315 -1.382812,-0.615235 -0.32928,-0.41664 -0.492187,-0.990176 -0.492187,-1.722656 0,-0.49056 0.07286,-0.910325 0.220703,-1.259765 0.14784,-0.34944 0.362291,-0.615435 0.644531,-0.796875 0.28224,-0.18144 0.620005,-0.271484 1.009765,-0.271484 z" />
  <path
     id="text9"
     style="font-weight:800;font-size:10.08px;font-family:Nunito, Arial;dominant-baseline:central;text-anchor:middle;fill:#222222"
     d="m 45.337885,99.318347 c -0.42336,0 -0.813762,0.05459 -1.169922,0.162109 -0.34944,0.10752 -0.65089,0.261291 -0.90625,0.462891 -0.25536,0.201603 -0.454583,0.441273 -0.595703,0.716793 -0.14112,0.27552 -0.210937,0.58002 -0.210937,0.91602 0,0.53088 0.15377,0.96173 0.46289,1.29101 0.31584,0.32256 0.796286,0.55115 1.441406,0.68555 l 1.138672,0.24219 c 0.3696,0.0806 0.629504,0.17677 0.777344,0.29101 0.14784,0.11424 0.220703,0.26997 0.220703,0.46485 0,0.22848 -0.10418,0.41966 -0.3125,0.57422 -0.20832,0.14784 -0.556315,0.22265 -1.046875,0.22265 -0.32256,0 -0.649235,-0.0374 -0.978515,-0.11132 -0.32256,-0.0739 -0.620965,-0.18919 -0.896485,-0.34375 -0.16128,-0.0807 -0.308959,-0.10392 -0.443359,-0.0703 -0.12768,0.0269 -0.236859,0.0936 -0.324219,0.20117 -0.08064,0.1008 -0.13023,0.21912 -0.15039,0.35352 -0.01344,0.1344 0.0098,0.26794 0.07031,0.40234 0.06048,0.12768 0.16466,0.23186 0.3125,0.3125 0.20832,0.12096 0.442998,0.2221 0.705078,0.30274 0.2688,0.0806 0.548931,0.14131 0.837891,0.18164 0.29568,0.0471 0.584947,0.0703 0.867187,0.0703 0.44352,0 0.843059,-0.0496 1.199219,-0.15039 0.35616,-0.10752 0.660655,-0.25824 0.916015,-0.45312 0.25536,-0.19488 0.451538,-0.42652 0.585938,-0.69532 0.1344,-0.27552 0.201172,-0.58197 0.201172,-0.91797 0,-0.51072 -0.161815,-0.92134 -0.484375,-1.23046 -0.32256,-0.31584 -0.812143,-0.54443 -1.470703,-0.68555 l -1.138672,-0.24024 c -0.34944,-0.0739 -0.595208,-0.172 -0.736328,-0.29296 -0.14112,-0.12096 -0.212891,-0.27973 -0.212891,-0.47461 0,-0.17472 0.05154,-0.32849 0.152344,-0.46289 0.10752,-0.1344 0.258245,-0.23858 0.453125,-0.3125 0.2016,-0.0739 0.444322,-0.11133 0.726562,-0.11133 0.26208,0 0.516985,0.0263 0.765625,0.0801 0.24864,0.0538 0.483318,0.13771 0.705078,0.25195 0.18144,0.0873 0.337164,0.11866 0.464844,0.0918 0.12768,-0.0269 0.23186,-0.0876 0.3125,-0.18164 0.08736,-0.0941 0.136951,-0.20131 0.150391,-0.32227 0.02016,-0.12768 0.003,-0.25209 -0.05078,-0.37305 -0.04704,-0.12768 -0.137084,-0.231857 -0.271484,-0.312497 -0.27552,-0.17472 -0.594151,-0.305218 -0.957031,-0.392578 -0.36288,-0.09408 -0.733055,-0.142578 -1.109375,-0.142578 z m -15.140623,0.02148 c -0.25536,0 -0.449584,0.06677 -0.583984,0.201172 -0.1344,0.1344 -0.201172,0.331668 -0.201172,0.593751 v 3.42774 c 0,0.51072 0.06373,0.9618 0.191406,1.35156 0.1344,0.38304 0.33167,0.70167 0.59375,0.95703 0.26208,0.25536 0.58571,0.44958 0.96875,0.58398 0.38976,0.12768 0.835843,0.19141 1.339843,0.19141 0.672,0 1.233354,-0.11332 1.683594,-0.3418 0.45696,-0.22848 0.798864,-0.57233 1.027344,-1.02929 0.2352,-0.46368 0.353515,-1.03417 0.353515,-1.71289 v -3.42774 c 0,-0.262083 -0.06677,-0.459351 -0.201172,-0.593751 -0.12768,-0.1344 -0.315813,-0.201172 -0.564453,-0.201172 -0.24864,0 -0.439818,0.06677 -0.574218,0.201172 -0.1344,0.1344 -0.203125,0.331668 -0.203125,0.593751 v 3.4375 c 0,0.57792 -0.130499,1.01487 -0.392579,1.31055 -0.25536,0.28896 -0.631626,0.43359 -1.128906,0.43359 -0.49728,0 -0.876591,-0.14463 -1.138671,-0.43359 -0.26208,-0.29568 -0.392578,-0.73263 -0.392578,-1.31055 v -3.4375 c 0,-0.262083 -0.06873,-0.459351 -0.203125,-0.593751 -0.1344,-0.1344 -0.325579,-0.201172 -0.574219,-0.201172 z m 28.224606,0 c -0.30912,0 -0.52857,0.09004 -0.65625,0.271485 -0.12096,0.18144 -0.136188,0.398938 -0.04883,0.654298 l 2.035156,5.72656 c 0.08064,0.21504 0.187865,0.37686 0.322265,0.48438 0.1344,0.1008 0.310351,0.15039 0.525391,0.15039 0.21504,0 0.382946,-0.0496 0.503906,-0.15039 0.12768,-0.10752 0.23186,-0.26629 0.3125,-0.47461 l 1.490234,-4.17773 1.472656,4.16796 c 0.08064,0.21504 0.18482,0.37686 0.3125,0.48438 0.12768,0.1008 0.298632,0.15039 0.513672,0.15039 0.22176,0 0.397711,-0.0496 0.525391,-0.15039 0.12768,-0.10752 0.226861,-0.26629 0.300781,-0.47461 l 2.05664,-5.73633 c 0.09408,-0.25536 0.0819,-0.472858 -0.03906,-0.654298 -0.12096,-0.18144 -0.314092,-0.271485 -0.576172,-0.271485 -0.20832,0 -0.373181,0.05264 -0.494141,0.160157 -0.12096,0.1008 -0.21405,0.256523 -0.28125,0.464843 l -1.505859,4.402343 -1.488281,-4.382811 c -0.08064,-0.22176 -0.178729,-0.383575 -0.292969,-0.484375 -0.11424,-0.10752 -0.264965,-0.160157 -0.453125,-0.160157 -0.19488,0 -0.351696,0.05264 -0.472656,0.160157 -0.11424,0.1008 -0.212328,0.259569 -0.292968,0.474609 l -1.53125,4.312507 -1.453125,-4.322273 c -0.07392,-0.21504 -0.170056,-0.373809 -0.291016,-0.474609 -0.11424,-0.1008 -0.2791,-0.150391 -0.49414,-0.150391 z m 11.621092,0 c -0.25536,0 -0.449584,0.06982 -0.583984,0.210938 -0.1344,0.14112 -0.201172,0.340341 -0.201172,0.595705 v 5.67383 c 0,0.25536 0.06677,0.45458 0.201172,0.5957 0.1344,0.14112 0.328624,0.21094 0.583984,0.21094 0.25536,0 0.448492,-0.0698 0.576172,-0.21094 0.1344,-0.14112 0.201172,-0.34034 0.201172,-0.5957 v -5.67383 c 0,-0.255364 -0.06677,-0.454585 -0.201172,-0.595705 -0.1344,-0.14112 -0.327532,-0.210938 -0.576172,-0.210938 z m 16.744139,0 c -0.25536,0 -0.451538,0.06982 -0.585938,0.210938 -0.1344,0.14112 -0.201172,0.340341 -0.201172,0.595705 v 5.67383 c 0,0.25536 0.06677,0.45458 0.201172,0.5957 0.1344,0.14112 0.330578,0.21094 0.585938,0.21094 0.25536,0 0.446538,-0.0698 0.574218,-0.21094 0.1344,-0.14112 0.201172,-0.34034 0.201172,-0.5957 v -2.23828 h 3.30664 v 2.23828 c 0,0.25536 0.06677,0.45458 0.201172,0.5957 0.1344,0.14112 0.325579,0.21094 0.574219,0.21094 0.25536,0 0.451537,-0.0698 0.585937,-0.21094 0.1344,-0.14112 0.201172,-0.34034 0.201172,-0.5957 v -5.67383 c 0,-0.255364 -0.06677,-0.454585 -0.201172,-0.595705 -0.1344,-0.14112 -0.330577,-0.210938 -0.585937,-0.210938 -0.24864,0 -0.439819,0.06982 -0.574219,0.210938 -0.1344,0.14112 -0.201172,0.340341 -0.201172,0.595705 v 2.13672 h -3.30664 v -2.13672 c 0,-0.255364 -0.06677,-0.454585 -0.201172,-0.595705 -0.1344,-0.14112 -0.325578,-0.210938 -0.574218,-0.210938 z m -49.048822,0.07031 c -0.25536,0 -0.451538,0.06677 -0.585938,0.201172 -0.1344,0.1344 -0.201172,0.331668 -0.201172,0.593751 v 5.53515 c 0,0.24864 0.06677,0.44287 0.201172,0.58399 0.14112,0.14112 0.340343,0.21289 0.595703,0.21289 h 3.466797 c 0.21504,0 0.3799,-0.0576 0.49414,-0.17188 0.12096,-0.11424 0.181641,-0.2791 0.181641,-0.49414 0,-0.20832 -0.06068,-0.37013 -0.181641,-0.48437 -0.11424,-0.11424 -0.2791,-0.17188 -0.49414,-0.17188 h -2.701172 v -5.00976 c 0,-0.262083 -0.06677,-0.459351 -0.201172,-0.593751 -0.1344,-0.1344 -0.325578,-0.201172 -0.574218,-0.201172 z m -14.173827,0.01953 c -0.25536,0 -0.45263,0.06677 -0.59375,0.201172 -0.1344,0.1344 -0.203125,0.333621 -0.203125,0.595701 v 5.59375 c 0,0.25536 0.06873,0.45458 0.203125,0.5957 0.1344,0.14112 0.328625,0.21094 0.583985,0.21094 0.25536,0 0.446538,-0.0698 0.574218,-0.21094 0.1344,-0.14112 0.201172,-0.34034 0.201172,-0.5957 v -1.84375 h 1.683594 c 0.79296,0 1.405857,-0.20227 1.835937,-0.60547 0.43008,-0.4032 0.644531,-0.96151 0.644531,-1.67383 0,-0.71232 -0.214451,-1.26563 -0.644531,-1.66211 -0.43008,-0.403196 -1.042977,-0.605463 -1.835937,-0.605463 z m 26.308591,0 c -0.26208,0 -0.462396,0.06982 -0.603516,0.210938 -0.14112,0.14112 -0.21289,0.343386 -0.21289,0.605465 v 5.47461 c 0,0.26208 0.07177,0.4624 0.21289,0.60352 0.14112,0.14112 0.341436,0.21289 0.603516,0.21289 h 3.517577 c 0.2016,0 0.354278,-0.0515 0.455078,-0.15235 0.10752,-0.10752 0.160157,-0.26129 0.160157,-0.46289 0,-0.19488 -0.05264,-0.34256 -0.160157,-0.44336 -0.1008,-0.10752 -0.253478,-0.16211 -0.455078,-0.16211 h -2.841796 v -1.77343 h 2.611328 c 0.20832,0 0.36209,-0.0515 0.46289,-0.15235 0.10752,-0.10752 0.16211,-0.26129 0.16211,-0.46289 0,-0.2016 -0.05459,-0.35232 -0.16211,-0.45312 -0.1008,-0.10752 -0.25457,-0.16211 -0.46289,-0.16211 h -2.611328 v -1.66211 h 2.841796 c 0.2016,0 0.354278,-0.0515 0.455078,-0.15235 0.10752,-0.10752 0.160157,-0.26129 0.160157,-0.46289 0,-0.194876 -0.05264,-0.342553 -0.160157,-0.443353 -0.1008,-0.10752 -0.253478,-0.16211 -0.455078,-0.16211 z m 23.195309,0 c -0.26208,0 -0.464348,0.06982 -0.605468,0.210938 -0.14112,0.14112 -0.210938,0.343386 -0.210938,0.605465 v 5.47461 c 0,0.26208 0.06982,0.4624 0.210938,0.60352 0.14112,0.14112 0.343388,0.21289 0.605468,0.21289 h 1.964844 c 0.61152,0 1.152646,-0.0779 1.623046,-0.23243 0.4704,-0.16128 0.866893,-0.39291 1.189453,-0.69531 0.32256,-0.3024 0.568329,-0.67257 0.736329,-1.10937 0.17472,-0.44352 0.261718,-0.95029 0.261718,-1.52149 0,-1.13568 -0.332767,-2.00957 -0.998047,-2.62109 -0.65856,-0.618241 -1.596179,-0.927733 -2.812499,-0.927733 z m 6.470703,0 c -0.20832,0 -0.370135,0.05763 -0.484375,0.171875 -0.11424,0.10752 -0.169922,0.264334 -0.169922,0.472658 0,0.2016 0.05568,0.36037 0.169922,0.47461 0.11424,0.11424 0.276055,0.17187 0.484375,0.17187 h 1.785156 v 5.09961 c 0,0.25536 0.06677,0.45458 0.201172,0.5957 0.1344,0.14112 0.328624,0.21094 0.583984,0.21094 0.25536,0 0.446538,-0.0698 0.574218,-0.21094 0.1344,-0.14112 0.201172,-0.34034 0.201172,-0.5957 v -5.09961 h 1.785156 c 0.20832,0 0.370135,-0.0576 0.484375,-0.17187 0.11424,-0.11424 0.169922,-0.27301 0.169922,-0.47461 0,-0.208324 -0.05568,-0.365138 -0.169922,-0.472658 -0.11424,-0.11424 -0.276055,-0.171875 -0.484375,-0.171875 z m -55.208978,1.220703 h 1.421875 c 0.4032,0 0.709649,0.087 0.917969,0.26172 0.21504,0.17472 0.322265,0.43571 0.322265,0.78515 0,0.34944 -0.107225,0.61544 -0.322265,0.79688 -0.20832,0.18144 -0.514769,0.27148 -0.917969,0.27148 h -1.421875 z m 49.484369,0.0606 h 1.128906 c 0.75264,0 1.317039,0.18813 1.693359,0.56445 0.38304,0.3696 0.574219,0.93704 0.574219,1.70312 0,0.38304 -0.04654,0.71886 -0.140625,1.00782 -0.09408,0.28224 -0.235668,0.51691 -0.423828,0.70507 -0.18816,0.18816 -0.422838,0.32975 -0.705078,0.42383 -0.28224,0.0941 -0.615007,0.14063 -0.998047,0.14063 h -1.128906 z" />
  <path
     id="text10"
     style="font-weight:800;font-size:10.08px;font-family:Nunito, Arial;dominant-baseline:central;text-anchor:middle;fill:#222222"
     d="m 37.582027,167.85349 c -0.30912,0 -0.52857,0.0901 -0.65625,0.27149 -0.12096,0.18144 -0.138142,0.40089 -0.05078,0.65625 l 2.03711,5.72461 c 0.08064,0.21504 0.187865,0.37685 0.322265,0.48437 0.1344,0.1008 0.308398,0.15039 0.523438,0.15039 0.21504,0 0.382946,-0.0496 0.503906,-0.15039 0.12768,-0.10752 0.23186,-0.26629 0.3125,-0.47461 l 1.492187,-4.17578 1.472656,4.16602 c 0.08064,0.21504 0.18482,0.37685 0.3125,0.48437 0.12768,0.1008 0.298632,0.15039 0.513672,0.15039 0.22176,0 0.395757,-0.0496 0.523437,-0.15039 0.12768,-0.10752 0.228815,-0.26629 0.302735,-0.47461 l 2.05664,-5.73437 c 0.09408,-0.25536 0.07994,-0.47481 -0.04102,-0.65625 -0.12096,-0.18144 -0.312138,-0.27149 -0.574218,-0.27149 -0.20832,0 -0.373181,0.0546 -0.494141,0.16211 -0.12096,0.1008 -0.21405,0.25457 -0.28125,0.46289 l -1.505859,4.40235 -1.488281,-4.38281 c -0.08064,-0.22176 -0.178729,-0.38163 -0.292969,-0.48243 -0.11424,-0.10752 -0.264965,-0.16211 -0.453125,-0.16211 -0.19488,0 -0.353649,0.0546 -0.474609,0.16211 -0.11424,0.1008 -0.210376,0.25762 -0.291016,0.47266 l -1.531249,4.3125 -1.453125,-4.32227 c -0.07392,-0.21504 -0.172009,-0.3738 -0.292969,-0.4746 -0.11424,-0.1008 -0.277147,-0.1504 -0.492187,-0.1504 z m 11.591795,0 c -0.22848,0 -0.410522,0.0637 -0.544922,0.19141 -0.12768,0.12768 -0.191406,0.30668 -0.191406,0.53516 v 5.83593 c 0,0.22848 0.06068,0.40553 0.181641,0.53321 0.12096,0.12768 0.294957,0.1914 0.523437,0.1914 0.2352,0 0.411151,-0.0637 0.525391,-0.1914 0.12096,-0.12768 0.179687,-0.30473 0.179687,-0.53321 v -3.66601 l 1.654297,2.93945 c 0.07392,0.12096 0.157873,0.216 0.251953,0.2832 0.09408,0.0672 0.215441,0.0996 0.363281,0.0996 0.14784,0 0.264202,-0.0294 0.351562,-0.0898 0.09408,-0.0672 0.181079,-0.16529 0.261719,-0.29297 l 1.654297,-2.96094 v 3.6875 c 0,0.22848 0.06068,0.40553 0.18164,0.53321 0.12768,0.12768 0.304724,0.1914 0.533204,0.1914 0.22848,0 0.40443,-0.0637 0.52539,-0.1914 0.12096,-0.12768 0.181641,-0.30473 0.181641,-0.53321 v -5.83593 c 0,-0.22848 -0.06568,-0.40748 -0.19336,-0.53516 -0.12096,-0.12768 -0.294957,-0.19141 -0.523437,-0.19141 -0.19488,0 -0.351696,0.0405 -0.472656,0.1211 -0.11424,0.0739 -0.223419,0.20442 -0.324219,0.39258 l -2.15625,3.93945 -2.156249,-3.93945 c -0.1008,-0.18816 -0.213025,-0.31866 -0.333985,-0.39258 -0.11424,-0.0806 -0.271056,-0.1211 -0.472656,-0.1211 z m 20.845701,0 c -0.19488,0 -0.367785,0.0546 -0.515625,0.16211 -0.14784,0.1008 -0.275293,0.26566 -0.382813,0.49414 l -2.580078,5.6543 c -0.08736,0.18144 -0.116723,0.3463 -0.08984,0.49414 0.0336,0.14784 0.106463,0.2642 0.220703,0.35156 0.12096,0.0874 0.27473,0.13086 0.46289,0.13086 0.21504,0 0.376855,-0.0496 0.484375,-0.15039 0.11424,-0.10752 0.221466,-0.27847 0.322266,-0.51367 l 0.412109,-0.96875 h 3.324218 l 0.417969,0.96875 c 0.09408,0.22848 0.201306,0.39639 0.322266,0.50391 0.12768,0.10752 0.304723,0.16015 0.533203,0.16015 0.18144,0 0.329119,-0.0404 0.443359,-0.12109 0.11424,-0.0874 0.182965,-0.20372 0.203125,-0.35156 0.02688,-0.15456 -0.0044,-0.32247 -0.0918,-0.50391 l -2.599609,-5.6543 c -0.1008,-0.22848 -0.225207,-0.39334 -0.373047,-0.49414 -0.14784,-0.10752 -0.318791,-0.16211 -0.513671,-0.16211 z m -38.789058,0.0899 c -0.25536,0 -0.45263,0.0687 -0.59375,0.20312 -0.1344,0.1344 -0.203125,0.33167 -0.203125,0.59375 v 5.59571 c 0,0.25536 0.06873,0.45263 0.203125,0.59375 0.1344,0.14112 0.328624,0.21093 0.583984,0.21093 0.25536,0 0.446539,-0.0698 0.574219,-0.21093 0.1344,-0.14112 0.201172,-0.33839 0.201172,-0.59375 v -1.84571 h 1.683593 c 0.79296,0 1.405858,-0.20227 1.835938,-0.60547 0.43008,-0.4032 0.644531,-0.95955 0.644531,-1.67187 0,-0.71232 -0.214451,-1.26758 -0.644531,-1.66406 -0.43008,-0.4032 -1.042978,-0.60547 -1.835938,-0.60547 z m 29.624996,0 c -0.25536,0 -0.45263,0.0687 -0.59375,0.20312 -0.1344,0.1344 -0.203125,0.33167 -0.203125,0.59375 v 5.59571 c 0,0.25536 0.06873,0.45263 0.203125,0.59375 0.1344,0.14112 0.328625,0.21093 0.583985,0.21093 0.25536,0 0.446538,-0.0698 0.574218,-0.21093 0.1344,-0.14112 0.201172,-0.33839 0.201172,-0.59375 v -2.03711 h 0.767578 c 0.20832,0 0.382318,0.0344 0.523438,0.10156 0.14784,0.0672 0.272246,0.19465 0.373046,0.38281 l 0.966797,1.7832 c 0.10752,0.19488 0.228881,0.33952 0.363281,0.4336 0.14112,0.0941 0.323162,0.14062 0.544922,0.14062 0.22176,0 0.389666,-0.0496 0.503906,-0.15039 0.11424,-0.1008 0.174921,-0.2313 0.181641,-0.39258 0.0067,-0.16128 -0.03678,-0.32614 -0.130859,-0.49414 l -0.625,-1.16015 c -0.15456,-0.28224 -0.339648,-0.4906 -0.554688,-0.625 -0.09506,-0.0644 -0.198144,-0.11343 -0.308593,-0.14844 0.150343,-0.04 0.290837,-0.0902 0.419921,-0.15234 0.3696,-0.17472 0.650823,-0.42354 0.845703,-0.7461 0.19488,-0.32256 0.292969,-0.70687 0.292969,-1.15039 0,-0.68544 -0.214451,-1.21852 -0.644531,-1.60156 -0.43008,-0.38304 -1.042977,-0.57617 -1.835937,-0.57617 z m 12.781249,0 c -0.20832,0 -0.368182,0.0576 -0.482422,0.17187 -0.11424,0.10752 -0.171875,0.26629 -0.171875,0.47461 0,0.2016 0.05764,0.35842 0.171875,0.47266 0.11424,0.11424 0.274102,0.17187 0.482422,0.17187 h 1.785156 v 5.10157 c 0,0.25536 0.06677,0.45263 0.201171,0.59375 0.1344,0.14112 0.328625,0.21093 0.583985,0.21093 0.25536,0 0.448492,-0.0698 0.576172,-0.21093 0.1344,-0.14112 0.201171,-0.33839 0.201171,-0.59375 v -5.10157 h 1.783203 c 0.20832,0 0.370135,-0.0576 0.484375,-0.17187 0.11424,-0.11424 0.171875,-0.27106 0.171875,-0.47266 0,-0.20832 -0.05763,-0.36709 -0.171875,-0.47461 -0.11424,-0.11424 -0.276055,-0.17187 -0.484375,-0.17187 z m 7.277342,0.002 c -0.26208,0 -0.462395,0.0698 -0.603515,0.21094 -0.14112,0.14112 -0.212891,0.34339 -0.212891,0.60547 v 5.47265 c 0,0.26208 0.07177,0.46435 0.212891,0.60547 0.14112,0.14112 0.341435,0.21094 0.603515,0.21094 h 3.519531 c 0.2016,0 0.352325,-0.0496 0.453125,-0.15039 0.10752,-0.10752 0.160156,-0.26324 0.160156,-0.46484 0,-0.19488 -0.05264,-0.34256 -0.160156,-0.44336 -0.1008,-0.10752 -0.251525,-0.16016 -0.453125,-0.16016 h -2.843749 v -1.77539 h 2.611327 c 0.20832,0 0.362092,-0.0496 0.462891,-0.15039 0.10752,-0.10752 0.162109,-0.26325 0.162109,-0.46485 0,-0.2016 -0.05459,-0.35232 -0.162109,-0.45312 -0.100799,-0.10752 -0.254571,-0.16016 -0.462891,-0.16016 h -2.611327 v -1.66406 h 2.843749 c 0.2016,0 0.352325,-0.0496 0.453125,-0.15039 0.10752,-0.10752 0.160156,-0.26324 0.160156,-0.46484 0,-0.19488 -0.05264,-0.34256 -0.160156,-0.44336 -0.1008,-0.10752 -0.251525,-0.16016 -0.453125,-0.16016 z m -48.917962,1.21875 h 1.421875 c 0.4032,0 0.709648,0.087 0.917968,0.26172 0.21504,0.17472 0.322266,0.43767 0.322266,0.78711 0,0.34944 -0.107226,0.61348 -0.322266,0.79492 -0.20832,0.18144 -0.514768,0.27344 -0.917968,0.27344 H 31.99609 Z m 29.624996,0 h 1.402344 c 0.41664,0 0.72918,0.0839 0.9375,0.25195 0.21504,0.168 0.322265,0.41682 0.322265,0.7461 0,0.336 -0.107225,0.58786 -0.322265,0.75586 -0.20832,0.168 -0.52086,0.25195 -0.9375,0.25195 h -1.402344 z m 8.376952,0.44336 h 0.02149 l 1.132812,2.68164 h -2.279297 z" />
  <path
     id="text11"
     style="font-weight:800;font-size:10.08px;font-family:Nunito, Arial;dominant-baseline:central;text-anchor:middle;fill:#222222"
     d="m 33.322261,220.49411 c -0.30912,0 -0.526616,0.09 -0.654296,0.27149 -0.12096,0.18144 -0.138142,0.40089 -0.05078,0.65625 l 2.035156,5.72461 c 0.08064,0.21504 0.187866,0.37685 0.322266,0.48437 0.1344,0.1008 0.310351,0.15039 0.525391,0.15039 0.21504,0 0.382946,-0.0496 0.503906,-0.15039 0.12768,-0.10752 0.23186,-0.26629 0.3125,-0.47461 l 1.492187,-4.17383 1.470703,4.16407 c 0.08064,0.21504 0.18482,0.37685 0.3125,0.48437 0.12768,0.1008 0.298632,0.15039 0.513672,0.15039 0.22176,0 0.39771,-0.0496 0.52539,-0.15039 0.12768,-0.10752 0.228815,-0.26629 0.302735,-0.47461 l 2.054687,-5.73437 c 0.09408,-0.25536 0.0819,-0.47481 -0.03906,-0.65625 -0.12096,-0.18144 -0.312138,-0.27149 -0.574218,-0.27149 -0.20832,0 -0.373181,0.0546 -0.494141,0.16211 -0.12096,0.1008 -0.216003,0.25457 -0.283203,0.46289 l -1.505859,4.40235 -1.488281,-4.38282 c -0.08064,-0.22176 -0.176776,-0.38162 -0.291016,-0.48242 -0.11424,-0.10752 -0.266918,-0.16211 -0.455078,-0.16211 -0.19488,0 -0.351696,0.0546 -0.472656,0.16211 -0.11424,0.1008 -0.212329,0.25762 -0.292969,0.47266 l -1.53125,4.3125 -1.451171,-4.32227 c -0.07392,-0.21504 -0.172009,-0.37381 -0.292969,-0.47461 -0.11424,-0.1008 -0.279101,-0.15039 -0.494141,-0.15039 z m 11.591796,0 c -0.22848,0 -0.410522,0.0637 -0.544922,0.19141 -0.12768,0.12768 -0.191406,0.30668 -0.191406,0.53516 v 5.83593 c 0,0.22848 0.06068,0.40553 0.18164,0.53321 0.12096,0.12768 0.296911,0.1914 0.525391,0.1914 0.2352,0 0.409197,-0.0637 0.523437,-0.1914 0.12096,-0.12768 0.181641,-0.30473 0.181641,-0.53321 v -3.66406 l 1.652344,2.9375 c 0.07392,0.12096 0.157873,0.216 0.251953,0.2832 0.09408,0.0672 0.215441,0.0996 0.363281,0.0996 0.14784,0 0.266156,-0.0294 0.353516,-0.0898 0.09408,-0.0672 0.181078,-0.16529 0.261718,-0.29297 l 1.652344,-2.95703 v 3.68359 c 0,0.22848 0.06068,0.40553 0.18164,0.53321 0.12768,0.12768 0.306677,0.1914 0.535157,0.1914 0.22848,0 0.402477,-0.0637 0.523437,-0.1914 0.12096,-0.12768 0.181641,-0.30473 0.181641,-0.53321 v -5.83593 c 0,-0.22848 -0.06373,-0.40748 -0.191407,-0.53516 -0.12096,-0.12768 -0.294957,-0.19141 -0.523437,-0.19141 -0.19488,0 -0.353649,0.0405 -0.474609,0.1211 -0.11424,0.0739 -0.221466,0.20442 -0.322266,0.39258 l -2.15625,3.9414 -2.158203,-3.9414 c -0.1008,-0.18816 -0.211071,-0.31866 -0.332031,-0.39258 -0.11424,-0.0806 -0.273009,-0.1211 -0.474609,-0.1211 z m 38.464839,0 c -0.25536,0 -0.449584,0.0698 -0.583984,0.21094 -0.1344,0.14112 -0.201172,0.34034 -0.201172,0.5957 v 5.67383 c 0,0.25536 0.06677,0.45458 0.201172,0.5957 0.1344,0.14112 0.328624,0.21094 0.583984,0.21094 0.25536,0 0.448492,-0.0698 0.576172,-0.21094 0.1344,-0.14112 0.201172,-0.34034 0.201172,-0.5957 v -2.23633 h 3.30664 v 2.23633 c 0,0.25536 0.06677,0.45458 0.201172,0.5957 0.1344,0.14112 0.325578,0.21094 0.574218,0.21094 0.25536,0 0.449585,-0.0698 0.583985,-0.21094 0.1344,-0.14112 0.201171,-0.34034 0.201171,-0.5957 v -5.67383 c 0,-0.25536 -0.06677,-0.45458 -0.201171,-0.5957 -0.1344,-0.14112 -0.328625,-0.21094 -0.583985,-0.21094 -0.24864,0 -0.439818,0.0698 -0.574218,0.21094 -0.1344,0.14112 -0.201172,0.34034 -0.201172,0.5957 v 2.13672 h -3.30664 v -2.13672 c 0,-0.25536 -0.06677,-0.45458 -0.201172,-0.5957 -0.1344,-0.14112 -0.327532,-0.21094 -0.576172,-0.21094 z m -56.406243,0.0898 c -0.25536,0 -0.454583,0.0687 -0.595703,0.20312 -0.1344,0.1344 -0.201172,0.33167 -0.201172,0.59375 v 5.59375 c 0,0.25536 0.06677,0.45458 0.201172,0.5957 0.1344,0.14112 0.328624,0.21094 0.583984,0.21094 0.25536,0 0.448492,-0.0698 0.576172,-0.21094 0.1344,-0.14112 0.201172,-0.34034 0.201172,-0.5957 v -1.84375 h 1.683593 c 0.79296,0 1.403904,-0.20227 1.833984,-0.60547 0.43008,-0.4032 0.644532,-0.95955 0.644532,-1.67187 0,-0.71232 -0.214452,-1.26758 -0.644532,-1.66406 -0.43008,-0.4032 -1.041024,-0.60547 -1.833984,-0.60547 z m 29.644527,0 c -0.26208,0 -0.464348,0.0718 -0.605468,0.21289 -0.14112,0.14112 -0.210938,0.34143 -0.210938,0.60351 v 5.47461 c 0,0.26208 0.06982,0.46435 0.210938,0.60547 0.14112,0.14112 0.343388,0.21094 0.605468,0.21094 h 1.964844 c 0.61152,0 1.152647,-0.0779 1.623047,-0.23242 0.4704,-0.16128 0.866893,-0.39292 1.189453,-0.69532 0.32256,-0.3024 0.568328,-0.67257 0.736328,-1.10937 0.17472,-0.44352 0.261718,-0.95029 0.261718,-1.52149 0,-1.13568 -0.332766,-2.00957 -0.998046,-2.62109 -0.65856,-0.61824 -1.59618,-0.92773 -2.8125,-0.92773 z m 7.802734,0 c -0.26208,0 -0.464349,0.0718 -0.605469,0.21289 -0.14112,0.14112 -0.210937,0.34143 -0.210937,0.60351 v 5.47461 c 0,0.26208 0.06982,0.46435 0.210937,0.60547 0.14112,0.14112 0.343389,0.21094 0.605469,0.21094 h 3.517578 c 0.2016,0 0.352325,-0.0516 0.453125,-0.15235 0.10752,-0.10752 0.162109,-0.26129 0.162109,-0.46289 0,-0.19488 -0.05459,-0.34256 -0.162109,-0.44336 -0.1008,-0.10752 -0.251525,-0.1621 -0.453125,-0.1621 h -2.84375 v -1.77344 h 2.611328 c 0.20832,0 0.36209,-0.0496 0.46289,-0.15039 0.10752,-0.10752 0.16211,-0.26325 0.16211,-0.46485 0,-0.2016 -0.05459,-0.35232 -0.16211,-0.45312 -0.1008,-0.10752 -0.25457,-0.16211 -0.46289,-0.16211 h -2.611328 v -1.66211 h 2.84375 c 0.2016,0 0.352325,-0.0515 0.453125,-0.15234 0.10752,-0.10752 0.162109,-0.26129 0.162109,-0.46289 0,-0.19488 -0.05459,-0.34256 -0.162109,-0.44336 -0.1008,-0.10752 -0.251525,-0.16211 -0.453125,-0.16211 z m 6.078124,0 c -0.25536,0 -0.454583,0.0687 -0.595703,0.20312 -0.1344,0.1344 -0.201172,0.33167 -0.201172,0.59375 v 5.59375 c 0,0.25536 0.06677,0.45458 0.201172,0.5957 0.1344,0.14112 0.328624,0.21094 0.583984,0.21094 0.25536,0 0.448492,-0.0698 0.576172,-0.21094 0.1344,-0.14112 0.201172,-0.34034 0.201172,-0.5957 v -1.84375 h 1.683594 c 0.79296,0 1.403904,-0.20227 1.833984,-0.60547 0.43008,-0.4032 0.644531,-0.95955 0.644531,-1.67187 0,-0.71232 -0.214451,-1.26758 -0.644531,-1.66406 -0.43008,-0.4032 -1.041024,-0.60547 -1.833984,-0.60547 z m 5.634765,0 c -0.20832,0 -0.370135,0.0576 -0.484375,0.17187 -0.11424,0.10752 -0.171875,0.26629 -0.171875,0.47461 0,0.2016 0.05764,0.35842 0.171875,0.47266 0.11424,0.11424 0.276055,0.17187 0.484375,0.17187 h 1.783203 v 5.09961 c 0,0.25536 0.06677,0.45458 0.201172,0.5957 0.1344,0.14112 0.330577,0.21094 0.585937,0.21094 0.25536,0 0.446539,-0.0698 0.574219,-0.21094 0.1344,-0.14112 0.201172,-0.34034 0.201172,-0.5957 v -5.09961 h 1.785156 c 0.20832,0 0.368182,-0.0576 0.482422,-0.17187 0.11424,-0.11424 0.171875,-0.27106 0.171875,-0.47266 0,-0.20832 -0.05763,-0.36709 -0.171875,-0.47461 -0.11424,-0.11424 -0.274102,-0.17187 -0.482422,-0.17187 z m -48.394525,1.2207 h 1.421875 c 0.4032,0 0.707695,0.087 0.916015,0.26172 0.21504,0.17472 0.322266,0.43767 0.322266,0.78711 0,0.34944 -0.107226,0.61348 -0.322266,0.79492 -0.20832,0.18144 -0.512815,0.27344 -0.916015,0.27344 h -1.421875 z m 43.525385,0 h 1.421875 c 0.4032,0 0.707695,0.087 0.916015,0.26172 0.21504,0.17472 0.322266,0.43767 0.322266,0.78711 0,0.34944 -0.107226,0.61348 -0.322266,0.79492 -0.20832,0.18144 -0.512815,0.27344 -0.916015,0.27344 h -1.421875 z m -13.900389,0.0605 h 1.128906 c 0.75264,0 1.317039,0.18813 1.693359,0.56445 0.38304,0.3696 0.574219,0.93704 0.574219,1.70312 0,0.38304 -0.04654,0.71886 -0.140625,1.00782 -0.09408,0.28224 -0.235668,0.51692 -0.423828,0.70508 -0.18816,0.18816 -0.422838,0.32974 -0.705078,0.42382 -0.28224,0.0941 -0.615007,0.14063 -0.998047,0.14063 h -1.128906 z" />
  <path
     id="text12"
     style="font-weight:800;font-size:10.08px;font-family:Nunito, Arial;dominant-baseline:central;text-anchor:middle;fill:#222222"
     d="m 69.560538,273.1152 c -0.5712,0 -1.086008,0.087 -1.542968,0.26172 -0.45024,0.17472 -0.832598,0.42353 -1.148438,0.74609 -0.31584,0.31584 -0.558562,0.6982 -0.726562,1.14844 -0.16128,0.44352 -0.242188,0.94419 -0.242188,1.50195 0,0.74592 0.144634,1.39428 0.433594,1.94532 0.29568,0.54432 0.715446,0.96713 1.259766,1.26953 0.54432,0.3024 1.200716,0.45507 1.966796,0.45507 0.35616,0 0.715245,-0.0485 1.078125,-0.14257 0.36288,-0.0941 0.669329,-0.22458 0.917969,-0.39258 0.14784,-0.0941 0.247021,-0.2074 0.300781,-0.3418 0.05376,-0.1344 0.0679,-0.2699 0.04102,-0.4043 -0.02016,-0.1344 -0.07779,-0.24771 -0.171875,-0.34179 -0.08736,-0.10083 -0.200677,-0.16151 -0.341797,-0.18164 -0.1344,-0.0269 -0.290124,0.002 -0.464844,0.0898 -0.20832,0.11427 -0.425817,0.19822 -0.654297,0.25195 -0.22176,0.0537 -0.44121,0.082 -0.65625,0.082 -0.45024,0 -0.829551,-0.089 -1.138671,-0.26368 -0.3024,-0.18144 -0.530987,-0.44243 -0.685547,-0.78515 -0.15456,-0.34272 -0.230469,-0.7564 -0.230469,-1.24024 0,-0.49056 0.07591,-0.90423 0.230469,-1.24023 0.15456,-0.336 0.383147,-0.59091 0.685547,-0.76563 0.30912,-0.18144 0.688431,-0.27148 1.138671,-0.27148 0.22848,0 0.454022,0.0263 0.675782,0.0801 0.22176,0.0538 0.433165,0.14076 0.634765,0.26172 0.168,0.0873 0.320678,0.11866 0.455078,0.0918 0.1344,-0.0269 0.244671,-0.0926 0.332031,-0.19336 0.09408,-0.1008 0.151715,-0.2202 0.171875,-0.36132 0.02688,-0.14112 0.0097,-0.28271 -0.05078,-0.42383 -0.06048,-0.14112 -0.17575,-0.25944 -0.34375,-0.35352 -0.25536,-0.15456 -0.55681,-0.27092 -0.90625,-0.35156 -0.34272,-0.0874 -0.681578,-0.13086 -1.017578,-0.13086 z m -25.925778,0.0195 c -0.30912,0 -0.52857,0.0901 -0.65625,0.27149 -0.12096,0.18144 -0.138141,0.40089 -0.05078,0.65625 l 2.037109,5.7246 c 0.08064,0.21504 0.187866,0.37686 0.322266,0.48438 0.1344,0.1008 0.308397,0.15039 0.523437,0.15039 0.21504,0 0.3849,-0.0496 0.50586,-0.15039 0.12768,-0.10752 0.229906,-0.26629 0.310546,-0.47461 l 1.492188,-4.17578 1.472656,4.16601 c 0.08064,0.21504 0.18482,0.37686 0.3125,0.48438 0.12768,0.1008 0.298631,0.15039 0.513671,0.15039 0.22176,0 0.395758,-0.0496 0.523438,-0.15039 0.12768,-0.10752 0.228814,-0.26629 0.302734,-0.47461 l 2.056641,-5.73437 c 0.09408,-0.25536 0.07994,-0.47481 -0.04102,-0.65625 -0.12096,-0.18144 -0.312139,-0.27149 -0.574219,-0.27149 -0.20832,0 -0.37318,0.0526 -0.49414,0.16016 -0.12096,0.1008 -0.21405,0.25652 -0.28125,0.46484 l -1.505859,4.40234 -1.488281,-4.38281 c -0.08064,-0.22176 -0.178729,-0.38357 -0.292969,-0.48437 -0.11424,-0.10752 -0.264965,-0.16016 -0.453125,-0.16016 -0.19488,0 -0.351696,0.0526 -0.472656,0.16016 -0.11424,0.1008 -0.212329,0.25957 -0.292969,0.47461 l -1.53125,4.3125 -1.453125,-4.32227 c -0.07392,-0.21504 -0.170055,-0.37381 -0.291015,-0.47461 -0.11424,-0.1008 -0.279101,-0.15039 -0.494141,-0.15039 z m 11.591796,0 c -0.22848,0 -0.410522,0.0637 -0.544922,0.19141 -0.12768,0.12768 -0.191406,0.30472 -0.191406,0.5332 v 5.83789 c 0,0.22848 0.06068,0.40552 0.18164,0.5332 0.12096,0.12768 0.294958,0.19141 0.523438,0.19141 0.2352,0 0.41115,-0.0637 0.52539,-0.19141 0.12096,-0.12768 0.181641,-0.30472 0.181641,-0.5332 v -3.66406 l 1.652343,2.9375 c 0.07392,0.12096 0.157873,0.216 0.251953,0.2832 0.09408,0.0672 0.215442,0.0996 0.363282,0.0996 0.14784,0 0.264202,-0.0294 0.351562,-0.0898 0.09408,-0.0672 0.183032,-0.16529 0.263672,-0.29297 l 1.652344,-2.95899 v 3.68555 c 0,0.22848 0.06068,0.40552 0.18164,0.5332 0.12768,0.12768 0.304723,0.19141 0.533203,0.19141 0.22848,0 0.404431,-0.0637 0.525391,-0.19141 0.12096,-0.12768 0.18164,-0.30472 0.18164,-0.5332 v -5.83789 c 0,-0.22848 -0.06373,-0.40552 -0.191406,-0.5332 -0.12096,-0.12768 -0.29691,-0.19141 -0.52539,-0.19141 -0.19488,0 -0.351697,0.0405 -0.472657,0.1211 -0.11424,0.0739 -0.221465,0.20441 -0.322265,0.39257 l -2.158203,3.93946 -2.15625,-3.93946 c -0.1008,-0.18816 -0.213024,-0.31865 -0.333984,-0.39257 -0.11424,-0.0806 -0.271056,-0.1211 -0.472656,-0.1211 z m 17.771482,0 c -0.18144,0 -0.337164,0.0466 -0.464844,0.14063 -0.12768,0.0874 -0.211633,0.21176 -0.251953,0.37304 -0.04032,0.15456 -0.014,0.33356 0.08008,0.53516 l 2.541015,5.64453 c 0.08736,0.2016 0.197632,0.35233 0.332032,0.45313 0.14112,0.0941 0.320116,0.14062 0.535156,0.14062 0.22176,0 0.395757,-0.0465 0.523437,-0.14062 0.1344,-0.1008 0.24967,-0.25153 0.34375,-0.45313 l 2.539062,-5.64453 c 0.08736,-0.2016 0.115632,-0.3806 0.08203,-0.53516 -0.02688,-0.16128 -0.101697,-0.28568 -0.222657,-0.37304 -0.11424,-0.0941 -0.261919,-0.14063 -0.443359,-0.14063 -0.21504,0 -0.382946,0.0496 -0.503906,0.15039 -0.12096,0.1008 -0.22514,0.25348 -0.3125,0.45508 l -1.976562,4.57617 -1.974609,-4.5664 c -0.08064,-0.2016 -0.181775,-0.35428 -0.302735,-0.45508 -0.12096,-0.10752 -0.294957,-0.16016 -0.523437,-0.16016 z m -35.714839,0.0899 c -0.25536,0 -0.45263,0.0687 -0.59375,0.20312 -0.1344,0.1344 -0.201172,0.33167 -0.201172,0.59375 v 5.59375 c 0,0.25536 0.06677,0.45458 0.201172,0.5957 0.1344,0.14112 0.328624,0.21094 0.583984,0.21094 0.25536,0 0.446539,-0.0698 0.574219,-0.21094 0.1344,-0.14112 0.203125,-0.34034 0.203125,-0.5957 v -1.84375 h 1.68164 c 0.79296,0 1.405857,-0.20227 1.835937,-0.60547 0.43008,-0.4032 0.644531,-0.95955 0.644531,-1.67187 0,-0.71232 -0.214451,-1.26759 -0.644531,-1.66407 -0.43008,-0.4032 -1.042977,-0.60546 -1.835937,-0.60546 z m 0.767578,1.2207 h 1.419921 c 0.4032,0 0.709649,0.087 0.917969,0.26172 0.21504,0.17472 0.322265,0.43767 0.322265,0.78711 0,0.34944 -0.107225,0.61348 -0.322265,0.79492 -0.20832,0.18144 -0.514769,0.27344 -0.917969,0.27344 h -1.419921 z" />
  <path
     id="text13"
     style="font-weight:800;font-size:10.08px;font-family:Nunito, Arial;dominant-baseline:central;text-anchor:middle;fill:#222222"
     d="m 49.707025,325.77535 c -0.22848,0 -0.410522,0.0637 -0.544922,0.19141 -0.12768,0.12768 -0.191406,0.30472 -0.191406,0.5332 v 5.83789 c 0,0.22848 0.06068,0.40552 0.181641,0.5332 0.12096,0.12768 0.29691,0.19141 0.52539,0.19141 0.2352,0 0.409198,-0.0637 0.523438,-0.19141 0.12096,-0.12768 0.18164,-0.30472 0.18164,-0.5332 v -3.66406 l 1.652344,2.9375 c 0.07392,0.12096 0.157873,0.21405 0.251953,0.28125 0.09408,0.0672 0.215441,0.10156 0.363281,0.10156 0.14784,0 0.266156,-0.0294 0.353516,-0.0898 0.09408,-0.0672 0.181078,-0.16529 0.261718,-0.29297 l 1.652344,-2.95899 v 3.68555 c 0,0.22848 0.06068,0.40552 0.181641,0.5332 0.12768,0.12768 0.306676,0.19141 0.535156,0.19141 0.22848,0 0.402477,-0.0637 0.523437,-0.19141 0.12096,-0.12768 0.181641,-0.30472 0.181641,-0.5332 V 326.5 c 0,-0.22848 -0.06373,-0.40552 -0.191406,-0.5332 -0.12096,-0.12768 -0.294958,-0.19141 -0.523438,-0.19141 -0.19488,0 -0.353649,0.0405 -0.474609,0.12109 -0.11424,0.0739 -0.221466,0.20442 -0.322266,0.39258 l -2.15625,3.94141 -2.158202,-3.94141 c -0.1008,-0.18816 -0.211072,-0.31866 -0.332032,-0.39258 -0.11424,-0.0806 -0.273009,-0.12109 -0.474609,-0.12109 z m 8.861327,0 c -0.25536,0 -0.451537,0.0698 -0.585937,0.21094 -0.1344,0.14112 -0.201172,0.34034 -0.201172,0.5957 v 5.67383 c 0,0.25536 0.06677,0.45458 0.201172,0.5957 0.1344,0.14112 0.330577,0.21094 0.585937,0.21094 0.25536,0 0.446539,-0.0698 0.574219,-0.21094 0.1344,-0.14112 0.201172,-0.34034 0.201172,-0.5957 v -5.67383 c 0,-0.25536 -0.06677,-0.45458 -0.201172,-0.5957 -0.1344,-0.14112 -0.325579,-0.21094 -0.574219,-0.21094 z m 2.720703,0 c -0.19488,0 -0.359741,0.0557 -0.494141,0.16992 -0.12768,0.10752 -0.200543,0.24606 -0.220703,0.41406 -0.01344,0.16128 0.04224,0.33224 0.169922,0.51368 l 1.876953,2.49609 -1.966797,2.60547 c -0.12768,0.17472 -0.182269,0.34567 -0.162109,0.51367 0.02016,0.16128 0.09498,0.29982 0.222656,0.41406 0.1344,0.10752 0.302306,0.16016 0.503906,0.16016 0.16128,0 0.305914,-0.0405 0.433594,-0.1211 0.12768,-0.0806 0.255133,-0.21113 0.382813,-0.39257 l 1.476562,-2.03516 1.476562,2.03516 c 0.1344,0.18144 0.261853,0.31193 0.382813,0.39257 0.12768,0.0806 0.272313,0.1211 0.433593,0.1211 0.20832,0 0.376227,-0.0526 0.503907,-0.16016 0.1344,-0.11424 0.209216,-0.25278 0.222656,-0.41406 0.02016,-0.168 -0.03748,-0.33895 -0.171875,-0.51367 l -1.955078,-2.60547 1.884765,-2.49609 c 0.1344,-0.18816 0.192035,-0.36216 0.171875,-0.52344 -0.01344,-0.168 -0.08826,-0.30654 -0.222656,-0.41406 -0.12768,-0.10752 -0.292541,-0.16016 -0.494141,-0.16016 -0.168,0 -0.315679,0.0405 -0.443359,0.12109 -0.12768,0.0739 -0.255132,0.20138 -0.382812,0.38282 l -1.400391,1.94726 -1.412109,-1.94726 c -0.12768,-0.17472 -0.255132,-0.30218 -0.382812,-0.38282 -0.12096,-0.0806 -0.265594,-0.12109 -0.433594,-0.12109 z" />
  <path
     id="rect13"
     style="fill:#1f1f1f"
     d="m 44.371088,382.18355 c -4.187715,0 -7.558593,3.37087 -7.558593,7.55859 v 43.57031 c 0,4.18771 3.370878,7.55859 7.558593,7.55859 h 26.457028 c 4.187716,0 7.558593,-3.37088 7.558593,-7.55859 v -43.57031 c 0,-4.18772 -3.370877,-7.55859 -7.558593,-7.55859 z" />
  <path
     id="text14"
     style="font-weight:800;font-size:10.08px;font-family:Nunito, Arial;dominant-baseline:central;text-anchor:middle;fill:#eaeaea"
     d="m 50.669916,389.73433 c -0.52416,0 -1.004606,0.087 -1.441406,0.26172 -0.43008,0.17472 -0.800255,0.42353 -1.109375,0.74609 -0.30912,0.31584 -0.546844,0.6982 -0.714844,1.14844 -0.16128,0.44352 -0.242187,0.94419 -0.242187,1.50195 0,0.73248 0.144633,1.37474 0.433593,1.92578 0.29568,0.55104 0.706309,0.97994 1.230469,1.28906 0.53088,0.3024 1.14487,0.45508 1.84375,0.45508 0.53088,0 1.011326,-0.087 1.441406,-0.26172 0.43008,-0.17472 0.800255,-0.42353 1.109375,-0.74609 0.30912,-0.32256 0.546843,-0.70992 0.714843,-1.16016 0.168,-0.45024 0.251953,-0.95396 0.251953,-1.51172 0,-0.73248 -0.147679,-1.37169 -0.443359,-1.91601 -0.28896,-0.55104 -0.69459,-0.9769 -1.21875,-1.2793 -0.52416,-0.3024 -1.143148,-0.45312 -1.855468,-0.45312 z m 5.46289,0.0195 c -0.25536,0 -0.449585,0.0668 -0.583985,0.20117 -0.1344,0.1344 -0.201172,0.33362 -0.201172,0.5957 v 3.42578 c 0,0.51072 0.06373,0.96181 0.191407,1.35157 0.1344,0.38304 0.33167,0.70167 0.59375,0.95703 0.26208,0.25536 0.585709,0.45153 0.968749,0.58593 0.38976,0.12768 0.835844,0.19141 1.339844,0.19141 0.672,0 1.233354,-0.11527 1.683594,-0.34375 0.45696,-0.22848 0.798863,-0.57038 1.027343,-1.02734 0.2352,-0.46368 0.353516,-1.03613 0.353516,-1.71485 v -3.42578 c 0,-0.26208 -0.06677,-0.4613 -0.201172,-0.5957 -0.12768,-0.1344 -0.315813,-0.20117 -0.564453,-0.20117 -0.24864,0 -0.439819,0.0668 -0.574219,0.20117 -0.1344,0.1344 -0.203125,0.33362 -0.203125,0.5957 v 3.4375 c 0,0.57792 -0.130498,1.01487 -0.392578,1.31055 -0.25536,0.28896 -0.631626,0.43164 -1.128906,0.43164 -0.49728,0 -0.876592,-0.14268 -1.138672,-0.43164 -0.26208,-0.29568 -0.392578,-0.73263 -0.392578,-1.31055 v -3.4375 c 0,-0.26208 -0.06872,-0.4613 -0.203125,-0.5957 -0.1344,-0.1344 -0.325578,-0.20117 -0.574218,-0.20117 z m 6.664061,0.0898 c -0.20832,0 -0.370135,0.0576 -0.484375,0.17188 -0.11424,0.10752 -0.171875,0.26629 -0.171875,0.47461 0,0.2016 0.05763,0.35841 0.171875,0.47265 0.11424,0.11424 0.276055,0.17188 0.484375,0.17188 h 1.783203 v 5.09961 c 0,0.25536 0.06677,0.45458 0.201172,0.5957 0.1344,0.14112 0.330577,0.21094 0.585937,0.21094 0.25536,0 0.446539,-0.0698 0.574219,-0.21094 0.1344,-0.14112 0.201172,-0.34034 0.201172,-0.5957 v -5.09961 h 1.785156 c 0.20832,0 0.368182,-0.0576 0.482422,-0.17188 0.11424,-0.11424 0.171875,-0.27105 0.171875,-0.47265 0,-0.20832 -0.05764,-0.36709 -0.171875,-0.47461 -0.11424,-0.11424 -0.274102,-0.17188 -0.482422,-0.17188 z m -12.126951,1.2207 c 0.59808,0 1.061344,0.20532 1.390624,0.61524 0.32928,0.4032 0.494141,0.97369 0.494141,1.71289 0,0.48384 -0.07786,0.9036 -0.232422,1.25976 -0.14784,0.34944 -0.362291,0.61849 -0.644531,0.80665 -0.27552,0.18144 -0.611332,0.27148 -1.007812,0.27148 -0.59136,0 -1.05158,-0.20336 -1.38086,-0.61328 -0.32928,-0.41664 -0.49414,-0.99213 -0.49414,-1.72461 0,-0.49056 0.07482,-0.91033 0.222656,-1.25977 0.14784,-0.34944 0.362291,-0.61543 0.644531,-0.79687 0.28224,-0.18144 0.618053,-0.27149 1.007813,-0.27149 z" />
</svg>
